<svg width="44" height="44" viewBox="0 0 44 44" fill="none" xmlns="http://www.w3.org/2000/svg">
<path d="M37.8955 0H5.41364C2.42802 0 0 2.46675 0 5.5V38.5C0 41.5332 2.42802 44 5.41364 44H37.8955C40.8811 44 43.3091 41.5332 43.3091 38.5V5.5C43.3091 2.46675 40.8811 0 37.8955 0Z" fill="#1976D2"/>
<path d="M36.5421 22H29.7751V16.5C29.7751 14.982 30.9877 15.125 32.4819 15.125H35.1887V8.25H29.7751C25.2899 8.25 21.6546 11.9433 21.6546 16.5V22H16.241V28.875H21.6546V44H29.7751V28.875H33.8353L36.5421 22Z" fill="#FAFAFA"/>
</svg>
