<svg width="27" height="24" viewBox="0 0 27 24" fill="none" xmlns="http://www.w3.org/2000/svg">
<path d="M20.965 8H18.7901V11H15.5277V13H18.7901V16H20.965V13H24.2274V11H20.965V8ZM4.65308 8C4.65308 10.28 6.52351 12 9.00293 12C11.4823 12 13.3528 10.28 13.3528 8C13.3528 5.72 11.4823 4 9.00293 4C6.52351 4 4.65308 5.72 4.65308 8ZM11.1779 8C11.1779 9.178 10.284 10 9.00293 10C7.7219 10 6.828 9.178 6.828 8C6.828 6.822 7.7219 6 9.00293 6C10.284 6 11.1779 6.822 11.1779 8ZM4.65308 18C4.65308 16.346 6.1168 15 7.91547 15H10.0904C11.8891 15 13.3528 16.346 13.3528 18V19H15.5277V18C15.5277 15.243 13.0885 13 10.0904 13H7.91547C4.91733 13 2.47815 15.243 2.47815 18V19H4.65308V18Z" fill="#BDBDBD"/>
</svg>
