<svg width="32" height="32" viewBox="0 0 32 32" fill="none" xmlns="http://www.w3.org/2000/svg">
<g clip-path="url(#clip0_192:1647)">
<path d="M5.33316 8.00024C4.80749 8.00162 4.28677 7.89874 3.80112 7.69757C3.31548 7.4964 2.87454 7.20092 2.50382 6.82824L0.445158 4.99624C0.181002 4.76072 0.0212223 4.42992 0.00096839 4.0766C-0.0192855 3.72329 0.101645 3.37639 0.337158 3.11224C0.57267 2.84808 0.903471 2.6883 1.25679 2.66805C1.61011 2.64779 1.957 2.76872 2.22116 3.00424L4.33449 4.88957C4.45547 5.02543 4.60298 5.1351 4.76793 5.21182C4.93288 5.28854 5.11178 5.3307 5.29363 5.3357C5.47549 5.34069 5.65644 5.30842 5.82535 5.24087C5.99426 5.17332 6.14757 5.07192 6.27582 4.9429L11.0812 0.368236C11.3395 0.138196 11.6772 0.0175945 12.0229 0.0319038C12.3686 0.0462132 12.6951 0.194313 12.9336 0.444922C13.1721 0.695532 13.3039 1.02903 13.301 1.37497C13.2982 1.72091 13.161 2.05222 12.9185 2.2989L8.13316 6.8509C7.76485 7.21706 7.32799 7.50703 6.84755 7.70424C6.3671 7.90146 5.8525 8.00204 5.33316 8.00024V8.00024ZM31.9998 5.33357C31.9998 4.97995 31.8594 4.64081 31.6093 4.39076C31.3593 4.14071 31.0201 4.00024 30.6665 4.00024H17.3332C16.9795 4.00024 16.6404 4.14071 16.3903 4.39076C16.1403 4.64081 15.9998 4.97995 15.9998 5.33357C15.9998 5.68719 16.1403 6.02633 16.3903 6.27638C16.6404 6.52643 16.9795 6.6669 17.3332 6.6669H30.6665C31.0201 6.6669 31.3593 6.52643 31.6093 6.27638C31.8594 6.02633 31.9998 5.68719 31.9998 5.33357ZM8.13316 17.5176L12.9185 12.9656C13.0521 12.8467 13.1603 12.7021 13.2369 12.5405C13.3134 12.3789 13.3567 12.2035 13.3641 12.0249C13.3715 11.8462 13.3429 11.6679 13.2799 11.5005C13.217 11.3331 13.121 11.1801 12.9978 11.0505C12.8745 10.921 12.7264 10.8176 12.5624 10.7464C12.3983 10.6753 12.2216 10.6379 12.0428 10.6364C11.864 10.635 11.6867 10.6695 11.5215 10.7379C11.3563 10.8064 11.2065 10.9074 11.0812 11.0349L6.28116 15.6096C6.02734 15.8523 5.68968 15.9877 5.33849 15.9877C4.9873 15.9877 4.64965 15.8523 4.39582 15.6096L2.27582 13.4962C2.02435 13.2534 1.68755 13.119 1.33796 13.122C0.98836 13.125 0.653944 13.2653 0.406733 13.5125C0.159522 13.7597 0.0192967 14.0941 0.0162588 14.4437C0.013221 14.7933 0.147614 15.1301 0.390491 15.3816L2.50382 17.4949C3.25006 18.2413 4.26105 18.6625 5.31649 18.6668C6.37193 18.671 7.38628 18.2579 8.13849 17.5176H8.13316ZM31.9998 16.0002C31.9998 15.6466 31.8594 15.3075 31.6093 15.0574C31.3593 14.8074 31.0201 14.6669 30.6665 14.6669H17.3332C16.9795 14.6669 16.6404 14.8074 16.3903 15.0574C16.1403 15.3075 15.9998 15.6466 15.9998 16.0002C15.9998 16.3539 16.1403 16.693 16.3903 16.943C16.6404 17.1931 16.9795 17.3336 17.3332 17.3336H30.6665C31.0201 17.3336 31.3593 17.1931 31.6093 16.943C31.8594 16.693 31.9998 16.3539 31.9998 16.0002ZM8.13316 28.1842L12.9132 23.6322C13.0467 23.5133 13.155 23.3688 13.2316 23.2072C13.3081 23.0456 13.3514 22.8702 13.3588 22.6915C13.3662 22.5129 13.3375 22.3345 13.2746 22.1671C13.2117 21.9998 13.1157 21.8467 12.9924 21.7172C12.8692 21.5877 12.7211 21.4842 12.557 21.4131C12.393 21.342 12.2163 21.3045 12.0374 21.3031C11.8586 21.3016 11.6813 21.3362 11.5161 21.4046C11.3509 21.4731 11.2012 21.5741 11.0758 21.7016L6.27582 26.2762C6.14757 26.4053 5.99426 26.5067 5.82535 26.5742C5.65644 26.6418 5.47549 26.674 5.29363 26.669C5.11178 26.664 4.93288 26.6219 4.76793 26.5452C4.60298 26.4684 4.45547 26.3588 4.33449 26.2229L2.22116 24.3376C1.957 24.1021 1.61011 23.9811 1.25679 24.0014C0.903471 24.0216 0.57267 24.1814 0.337158 24.4456C0.101645 24.7097 -0.0192855 25.0566 0.00096839 25.4099C0.0212223 25.7633 0.181002 26.0941 0.445158 26.3296L2.50382 28.1616C3.25006 28.908 4.26105 29.3292 5.31649 29.3334C6.37193 29.3377 7.38628 28.9246 8.13849 28.1842H8.13316ZM31.9998 26.6669C31.9998 26.3133 31.8594 25.9741 31.6093 25.7241C31.3593 25.474 31.0201 25.3336 30.6665 25.3336H17.3332C16.9795 25.3336 16.6404 25.474 16.3903 25.7241C16.1403 25.9741 15.9998 26.3133 15.9998 26.6669C15.9998 27.0205 16.1403 27.3597 16.3903 27.6097C16.6404 27.8598 16.9795 28.0002 17.3332 28.0002H30.6665C31.0201 28.0002 31.3593 27.8598 31.6093 27.6097C31.8594 27.3597 31.9998 27.0205 31.9998 26.6669Z" fill="#FCFDFF"/>
</g>
<defs>
<clipPath id="clip0_192:1647">
<rect width="32" height="32" fill="white"/>
</clipPath>
</defs>
</svg>
