<svg width="24" height="25" viewBox="0 0 24 25" fill="none" xmlns="http://www.w3.org/2000/svg">
<g clip-path="url(#clip0_988_13379)">
<path d="M19.1218 18.8936L23.0408 14.9746C23.6772 14.3078 24.0322 13.4214 24.0322 12.4996C24.0322 11.5779 23.6772 10.6915 23.0408 10.0246L19.1218 6.10564C18.8405 5.82425 18.459 5.66611 18.0611 5.66602C17.6633 5.66592 17.2817 5.82388 17.0003 6.10514C16.7189 6.38641 16.5608 6.76793 16.5607 7.16579C16.5606 7.56365 16.7185 7.94525 16.9998 8.22664L19.7798 11.0076L1.52979 11.0306C1.13196 11.0306 0.75043 11.1887 0.469125 11.47C0.18782 11.7513 0.0297852 12.1328 0.0297852 12.5306V12.5306C0.0297852 12.9285 0.18782 13.31 0.469125 13.5913C0.75043 13.8726 1.13196 14.0306 1.52979 14.0306L19.7608 14.0076L16.9998 16.7726C16.7265 17.0556 16.5754 17.4345 16.5788 17.8278C16.5822 18.221 16.7399 18.5973 17.0181 18.8754C17.2962 19.1535 17.6724 19.3112 18.0657 19.3147C18.459 19.3181 18.8379 19.1669 19.1208 18.8936H19.1218Z" fill="#FCFDFF"/>
</g>
<defs>
<clipPath id="clip0_988_13379">
<rect width="24" height="24" fill="white" transform="translate(0 0.5)"/>
</clipPath>
</defs>
</svg>
