<svg width="29" height="29" viewBox="0 0 29 29" fill="none" xmlns="http://www.w3.org/2000/svg">
<g clip-path="url(#clip0_892_11742)">
<path d="M7.07107 7.07151C5.67255 8.47003 4.72014 10.2519 4.33429 12.1917C3.94843 14.1315 4.14647 16.1421 4.90334 17.9694C5.66022 19.7967 6.94194 21.3585 8.58644 22.4573C10.2309 23.5561 12.1643 24.1426 14.1421 24.1426C16.12 24.1426 18.0533 23.5561 19.6978 22.4573C21.3423 21.3585 22.6241 19.7967 23.3809 17.9694C24.1378 16.1421 24.3358 14.1315 23.95 12.1917C23.5641 10.2519 22.6117 8.47003 21.2132 7.07151C19.3364 5.19879 16.7934 4.14705 14.1421 4.14705C11.4909 4.14705 8.94784 5.19879 7.07107 7.07151V7.07151ZM17.0884 12.3748L15.3207 14.1426L17.0884 15.9103C17.2447 16.0666 17.3325 16.2786 17.3325 16.4996C17.3325 16.7206 17.2447 16.9326 17.0884 17.0889C16.9321 17.2451 16.7202 17.3329 16.4992 17.3329C16.2781 17.3329 16.0662 17.2451 15.9099 17.0889L14.1421 15.3211L12.3744 17.0889C12.2181 17.2451 12.0061 17.3329 11.7851 17.3329C11.5641 17.3329 11.3521 17.2451 11.1959 17.0889C11.0396 16.9326 10.9518 16.7206 10.9518 16.4996C10.9518 16.2786 11.0396 16.0666 11.1959 15.9103L12.9636 14.1426L11.1959 12.3748C11.0396 12.2185 10.9518 12.0066 10.9518 11.7856C10.9518 11.5645 11.0396 11.3526 11.1959 11.1963C11.3521 11.04 11.5641 10.9522 11.7851 10.9522C12.0061 10.9522 12.2181 11.04 12.3744 11.1963L14.1421 12.9641L15.9099 11.1963C16.0662 11.04 16.2781 10.9522 16.4992 10.9522C16.7202 10.9522 16.9321 11.04 17.0884 11.1963C17.2447 11.3526 17.3325 11.5645 17.3325 11.7856C17.3325 12.0066 17.2447 12.2185 17.0884 12.3748Z" fill="#709EDE"/>
</g>
<defs>
<clipPath id="clip0_892_11742">
<rect width="20" height="20" fill="white" transform="translate(0 14.1426) rotate(-45)"/>
</clipPath>
</defs>
</svg>
