<svg width="20" height="20" viewBox="0 0 20 20" fill="none" xmlns="http://www.w3.org/2000/svg">
<g clip-path="url(#clip0_330_9793)">
<path d="M15.8333 0.833008H4.16667C3.062 0.834331 2.00296 1.27374 1.22185 2.05486C0.440735 2.83597 0.00132321 3.89501 0 4.99967L0 14.9997C0.00132321 16.1043 0.440735 17.1634 1.22185 17.9445C2.00296 18.7256 3.062 19.165 4.16667 19.1663H15.8333C16.938 19.165 17.997 18.7256 18.7782 17.9445C19.5593 17.1634 19.9987 16.1043 20 14.9997V4.99967C19.9987 3.89501 19.5593 2.83597 18.7782 2.05486C17.997 1.27374 16.938 0.834331 15.8333 0.833008ZM4.16667 2.49967H15.8333C16.4964 2.49967 17.1323 2.76307 17.6011 3.23191C18.0699 3.70075 18.3333 4.33663 18.3333 4.99967V5.83301H1.66667V4.99967C1.66667 4.33663 1.93006 3.70075 2.3989 3.23191C2.86774 2.76307 3.50363 2.49967 4.16667 2.49967ZM15.8333 17.4997H4.16667C3.50363 17.4997 2.86774 17.2363 2.3989 16.7674C1.93006 16.2986 1.66667 15.6627 1.66667 14.9997V7.49967H18.3333V14.9997C18.3333 15.6627 18.0699 16.2986 17.6011 16.7674C17.1323 17.2363 16.4964 17.4997 15.8333 17.4997ZM15.8333 10.833C15.8333 11.054 15.7455 11.266 15.5893 11.4223C15.433 11.5785 15.221 11.6663 15 11.6663H5C4.77899 11.6663 4.56702 11.5785 4.41074 11.4223C4.25446 11.266 4.16667 11.054 4.16667 10.833C4.16667 10.612 4.25446 10.4 4.41074 10.2438C4.56702 10.0875 4.77899 9.99967 5 9.99967H15C15.221 9.99967 15.433 10.0875 15.5893 10.2438C15.7455 10.4 15.8333 10.612 15.8333 10.833ZM12.5 14.1663C12.5 14.3874 12.4122 14.5993 12.2559 14.7556C12.0996 14.9119 11.8877 14.9997 11.6667 14.9997H5C4.77899 14.9997 4.56702 14.9119 4.41074 14.7556C4.25446 14.5993 4.16667 14.3874 4.16667 14.1663C4.16667 13.9453 4.25446 13.7334 4.41074 13.5771C4.56702 13.4208 4.77899 13.333 5 13.333H11.6667C11.8877 13.333 12.0996 13.4208 12.2559 13.5771C12.4122 13.7334 12.5 13.9453 12.5 14.1663ZM2.5 4.16634C2.5 4.00152 2.54887 3.84041 2.64044 3.70337C2.73201 3.56632 2.86216 3.45951 3.01443 3.39644C3.1667 3.33337 3.33426 3.31687 3.49591 3.34902C3.65756 3.38117 3.80605 3.46054 3.92259 3.57709C4.03913 3.69363 4.1185 3.84211 4.15065 4.00377C4.18281 4.16542 4.16631 4.33297 4.10323 4.48524C4.04016 4.63752 3.93335 4.76766 3.79631 4.85923C3.65927 4.9508 3.49815 4.99967 3.33333 4.99967C3.11232 4.99967 2.90036 4.91188 2.74408 4.7556C2.5878 4.59932 2.5 4.38735 2.5 4.16634ZM5 4.16634C5 4.00152 5.04887 3.84041 5.14044 3.70337C5.23201 3.56632 5.36216 3.45951 5.51443 3.39644C5.6667 3.33337 5.83426 3.31687 5.99591 3.34902C6.15756 3.38117 6.30605 3.46054 6.42259 3.57709C6.53913 3.69363 6.6185 3.84211 6.65065 4.00377C6.68281 4.16542 6.66631 4.33297 6.60323 4.48524C6.54016 4.63752 6.43335 4.76766 6.29631 4.85923C6.15927 4.9508 5.99815 4.99967 5.83333 4.99967C5.61232 4.99967 5.40036 4.91188 5.24408 4.7556C5.0878 4.59932 5 4.38735 5 4.16634ZM7.5 4.16634C7.5 4.00152 7.54887 3.84041 7.64044 3.70337C7.73201 3.56632 7.86216 3.45951 8.01443 3.39644C8.1667 3.33337 8.33426 3.31687 8.49591 3.34902C8.65756 3.38117 8.80604 3.46054 8.92259 3.57709C9.03913 3.69363 9.1185 3.84211 9.15065 4.00377C9.18281 4.16542 9.16631 4.33297 9.10323 4.48524C9.04016 4.63752 8.93335 4.76766 8.79631 4.85923C8.65927 4.9508 8.49815 4.99967 8.33333 4.99967C8.11232 4.99967 7.90036 4.91188 7.74408 4.7556C7.5878 4.59932 7.5 4.38735 7.5 4.16634Z" fill="#000E20"/>
</g>
<defs>
<clipPath id="clip0_330_9793">
<rect width="20" height="20" fill="white"/>
</clipPath>
</defs>
</svg>
