<svg width="16" height="12" viewBox="0 0 16 12" fill="none" xmlns="http://www.w3.org/2000/svg">
<path d="M5.66709 11.7869C5.03605 11.7873 4.43109 11.5353 3.98709 11.0869L1.00007 8.10494C0.414086 7.51933 0.413805 6.56959 0.999414 5.98361C0.999648 5.98337 0.999883 5.98314 1.00007 5.9829C1.58582 5.39734 2.53532 5.39734 3.12107 5.9829L5.66709 8.52789L12.8791 1.31588C13.4648 0.730318 14.4143 0.730318 15.0001 1.31588C15.5861 1.90149 15.5864 2.85123 15.0007 3.43721C15.0005 3.43745 15.0003 3.43768 15.0001 3.43787L7.3461 11.0919C6.90163 11.5384 6.29709 11.7887 5.66709 11.7869Z" fill="#135BBD"/>
</svg>
