<svg width="24" height="24" viewBox="0 0 24 24" fill="none" xmlns="http://www.w3.org/2000/svg">
<g clip-path="url(#clip0_892_11282)">
<path d="M3.51458 3.51471C1.83635 5.19294 0.693462 7.33114 0.23044 9.65891C-0.232583 11.9867 0.00505771 14.3995 0.91331 16.5922C1.82156 18.7849 3.35963 20.6591 5.33302 21.9776C7.30641 23.2962 9.62649 24 11.9999 24C14.3732 24 16.6933 23.2962 18.6667 21.9776C20.6401 20.6591 22.1782 18.7849 23.0864 16.5922C23.9947 14.3995 24.2323 11.9867 23.7693 9.65891C23.3063 7.33114 22.1634 5.19295 20.4851 3.51472C18.233 1.26746 15.1814 0.00537093 11.9999 0.00537076C8.81832 0.00537051 5.7667 1.26746 3.51458 3.51471V3.51471ZM15.5354 9.87868L13.4141 12L15.5354 14.1213C15.7229 14.3089 15.8283 14.5632 15.8283 14.8284C15.8283 15.0936 15.7229 15.348 15.5354 15.5355C15.3479 15.7231 15.0935 15.8284 14.8283 15.8284C14.5631 15.8284 14.3087 15.7231 14.1212 15.5355L11.9999 13.4142L9.87854 15.5355C9.69101 15.7231 9.43665 15.8284 9.17144 15.8284C8.90622 15.8284 8.65187 15.7231 8.46433 15.5355C8.27679 15.348 8.17144 15.0936 8.17144 14.8284C8.17144 14.5632 8.27679 14.3089 8.46433 14.1213L10.5857 12L8.46433 9.87868C8.27679 9.69114 8.17144 9.43679 8.17144 9.17157C8.17144 8.90635 8.27679 8.652 8.46433 8.46446C8.65187 8.27693 8.90622 8.17157 9.17144 8.17157C9.43665 8.17157 9.69101 8.27693 9.87854 8.46446L11.9999 10.5858L14.1212 8.46446C14.3087 8.27693 14.5631 8.17157 14.8283 8.17157C15.0935 8.17157 15.3479 8.27693 15.5354 8.46446C15.7229 8.652 15.8283 8.90635 15.8283 9.17157C15.8283 9.43679 15.7229 9.69114 15.5354 9.87868Z" fill="#FCFDFF"/>
</g>
<defs>
<clipPath id="clip0_892_11282">
<rect width="24" height="24" fill="white" transform="translate(-4.9707 12) rotate(-45)"/>
</clipPath>
</defs>
</svg>
