<svg width="24" height="24" viewBox="0 0 24 24" fill="none" xmlns="http://www.w3.org/2000/svg">
<g clip-path="url(#clip0_773:12100)">
<path d="M23.6988 1.71875L5.18896 20.2236C5.58913 20.4187 6.02804 20.5212 6.47318 20.5235H9.64325C9.90845 20.5228 10.1629 20.6282 10.3498 20.8163L12.0678 22.5333C12.9995 23.4713 14.2666 23.9994 15.5887 24.0004C16.1345 23.9999 16.6766 23.9104 17.1937 23.7356C18.9762 23.1512 20.2728 21.6059 20.5387 19.7489L23.9157 3.70857C24.0769 3.04021 24.0002 2.33661 23.6988 1.71875Z" fill="#FCFDFF"/>
<path d="M20.3208 0.0774024L4.31942 3.44841C1.58535 3.82402 -0.326562 6.34494 0.0490558 9.07902C0.19742 10.1587 0.694699 11.1604 1.46514 11.9313L3.18212 13.6483C3.36979 13.8359 3.47515 14.0905 3.47496 14.3558V17.5259C3.47726 17.9711 3.57976 18.41 3.77478 18.8101L22.2816 0.3003C21.6735 0.00141685 20.9805 -0.0773327 20.3208 0.0774024Z" fill="#FCFDFF"/>
</g>
<defs>
<clipPath id="clip0_773:12100">
<rect width="24" height="24" fill="white"/>
</clipPath>
</defs>
</svg>
