<svg width="24" height="25" viewBox="0 0 24 25" fill="none" xmlns="http://www.w3.org/2000/svg">
<path d="M6 16.5V18.5C6 19.6046 6.89543 20.5 8 20.5H11" stroke="#FCFDFF" stroke-width="2" stroke-linecap="round"/>
<path d="M15 4.5H17C18.1046 4.5 19 5.39543 19 6.5V8.5" stroke="#FCFDFF" stroke-width="2" stroke-linecap="round"/>
<g clip-path="url(#clip0_427:10321)">
<path d="M17.2034 19.0935C14.895 19.3021 13.1363 21.2527 13.1669 23.5704V23.6879C13.1669 24.1366 13.5307 24.5004 13.9794 24.5004C14.4281 24.5004 14.7919 24.1366 14.7919 23.6879V23.5379C14.7675 22.1148 15.8176 20.9013 17.2294 20.7212C18.7197 20.5734 20.0476 21.6617 20.1953 23.152C20.2041 23.2401 20.2085 23.3285 20.2086 23.4171V23.6879C20.2086 24.1366 20.5723 24.5004 21.0211 24.5004C21.4698 24.5004 21.8336 24.1366 21.8336 23.6879V23.417C21.8309 21.0211 19.8865 19.081 17.4906 19.0836C17.3948 19.0837 17.299 19.087 17.2034 19.0935Z" fill="#FCFDFF"/>
<path d="M17.5002 18C19.2952 18 20.7502 16.5449 20.7502 14.75C20.7502 12.9551 19.2952 11.5 17.5002 11.5C15.7053 11.5 14.2502 12.9551 14.2502 14.75C14.252 16.5442 15.7061 17.9982 17.5002 18ZM17.5002 13.125C18.3977 13.125 19.1252 13.8525 19.1252 14.75C19.1252 15.6475 18.3977 16.375 17.5002 16.375C16.6028 16.375 15.8752 15.6475 15.8752 14.75C15.8752 13.8525 16.6028 13.125 17.5002 13.125Z" fill="#FCFDFF"/>
</g>
<g clip-path="url(#clip1_427:10321)">
<path d="M6.2034 8.09347C3.89496 8.30213 2.13625 10.2527 2.1669 12.5704V12.6879C2.1669 13.1366 2.53067 13.5004 2.9794 13.5004C3.42813 13.5004 3.7919 13.1366 3.7919 12.6879V12.5379C3.76747 11.1148 4.81763 9.90134 6.2294 9.72119C7.71965 9.57342 9.04756 10.6617 9.19533 12.152C9.20406 12.2401 9.20848 12.3285 9.20856 12.4171V12.6879C9.20856 13.1366 9.57233 13.5004 10.0211 13.5004C10.4698 13.5004 10.8336 13.1366 10.8336 12.6879V12.417C10.8309 10.0211 8.88648 8.08098 6.49057 8.08362C6.39477 8.08375 6.29899 8.08702 6.2034 8.09347Z" fill="#FCFDFF"/>
<path d="M6.50024 7C8.29516 7 9.75024 5.54491 9.75024 3.75C9.75024 1.95509 8.29516 0.5 6.50024 0.5C4.70533 0.5 3.25024 1.95509 3.25024 3.75C3.25202 5.54418 4.70607 6.9982 6.50024 7ZM6.50024 2.125C7.3977 2.125 8.12524 2.85254 8.12524 3.75C8.12524 4.64746 7.3977 5.375 6.50024 5.375C5.60279 5.375 4.87524 4.64746 4.87524 3.75C4.87524 2.85254 5.60279 2.125 6.50024 2.125Z" fill="#FCFDFF"/>
</g>
<defs>
<clipPath id="clip0_427:10321">
<rect width="13" height="13" fill="white" transform="translate(11 11.5)"/>
</clipPath>
<clipPath id="clip1_427:10321">
<rect width="13" height="13" fill="white" transform="translate(0 0.5)"/>
</clipPath>
</defs>
</svg>
