<svg width="23" height="23" viewBox="0 0 23 23" fill="none" xmlns="http://www.w3.org/2000/svg">
<g clip-path="url(#clip0_287:7524)">
<path d="M18.721 2.99194L17.134 1.40302C16.69 0.956735 16.1619 0.602944 15.5802 0.36212C14.9986 0.121296 14.3749 -0.00177866 13.7454 1.9421e-05H7.66667C6.3963 0.00154112 5.17841 0.506865 4.28013 1.40515C3.38185 2.30343 2.87652 3.52132 2.875 4.79169V18.2084C2.87652 19.4787 3.38185 20.6966 4.28013 21.5949C5.17841 22.4932 6.3963 22.9985 7.66667 23H15.3333C16.6037 22.9985 17.8216 22.4932 18.7199 21.5949C19.6182 20.6966 20.1235 19.4787 20.125 18.2084V6.37964C20.1265 5.7502 20.0033 5.12669 19.7623 4.5452C19.5213 3.9637 19.1674 3.43577 18.721 2.99194ZM17.366 4.34702C17.5019 4.48245 17.6236 4.63145 17.7292 4.79169H15.3333V2.39585C15.4933 2.50253 15.6426 2.6245 15.779 2.76002L17.366 4.34702ZM18.2083 18.2084C18.2083 18.9708 17.9054 19.7021 17.3663 20.2413C16.8271 20.7805 16.0958 21.0834 15.3333 21.0834H7.66667C6.90417 21.0834 6.1729 20.7805 5.63373 20.2413C5.09457 19.7021 4.79167 18.9708 4.79167 18.2084V4.79169C4.79167 4.02919 5.09457 3.29792 5.63373 2.75875C6.1729 2.21959 6.90417 1.91669 7.66667 1.91669H13.4167V4.79169C13.4167 5.30002 13.6186 5.78753 13.978 6.14697C14.3375 6.50642 14.825 6.70835 15.3333 6.70835H18.2083V18.2084ZM15.3333 8.62502C15.5875 8.62502 15.8313 8.72599 16.011 8.90571C16.1907 9.08543 16.2917 9.32919 16.2917 9.58335C16.2917 9.83752 16.1907 10.0813 16.011 10.261C15.8313 10.4407 15.5875 10.5417 15.3333 10.5417H7.66667C7.4125 10.5417 7.16875 10.4407 6.98902 10.261C6.8093 10.0813 6.70833 9.83752 6.70833 9.58335C6.70833 9.32919 6.8093 9.08543 6.98902 8.90571C7.16875 8.72599 7.4125 8.62502 7.66667 8.62502H15.3333ZM16.2917 13.4167C16.2917 13.6709 16.1907 13.9146 16.011 14.0943C15.8313 14.2741 15.5875 14.375 15.3333 14.375H7.66667C7.4125 14.375 7.16875 14.2741 6.98902 14.0943C6.8093 13.9146 6.70833 13.6709 6.70833 13.4167C6.70833 13.1625 6.8093 12.9188 6.98902 12.739C7.16875 12.5593 7.4125 12.4584 7.66667 12.4584H15.3333C15.5875 12.4584 15.8313 12.5593 16.011 12.739C16.1907 12.9188 16.2917 13.1625 16.2917 13.4167ZM16.1077 16.6875C16.2566 16.8924 16.3184 17.148 16.2794 17.3984C16.2404 17.6487 16.1039 17.8734 15.8997 18.0234C14.9287 18.7153 13.7787 19.1123 12.5877 19.1667C11.8918 19.1633 11.2171 18.9272 10.671 18.4959C10.3567 18.2802 10.2369 18.2084 10.0002 18.2084C9.35949 18.3075 8.75497 18.5695 8.24454 18.9693C8.04209 19.1136 7.79148 19.1736 7.54562 19.1366C7.29977 19.0996 7.07791 18.9685 6.92691 18.771C6.77591 18.5734 6.70759 18.325 6.73636 18.078C6.76514 17.8311 6.88876 17.6049 7.08113 17.4474C7.92559 16.7919 8.9396 16.3909 10.004 16.2917C10.6424 16.3019 11.2596 16.5225 11.7597 16.9194C11.9877 17.1244 12.2812 17.2416 12.5877 17.25C13.3713 17.1913 14.1248 16.9236 14.7698 16.4747C14.9755 16.3257 15.2319 16.2643 15.4828 16.3042C15.7336 16.3441 15.9584 16.482 16.1077 16.6875Z" fill="#135BBD"/>
</g>
<defs>
<clipPath id="clip0_287:7524">
<rect width="23" height="23" fill="white"/>
</clipPath>
</defs>
</svg>
