<svg width="16" height="16" viewBox="0 0 16 16" fill="none" xmlns="http://www.w3.org/2000/svg">
<path d="M13.2686 5.72404C13.237 5.65169 13.1928 5.58554 13.138 5.52871L9.13796 1.52871C9.08113 1.4739 9.01498 1.42965 8.94263 1.39804C8.92263 1.38871 8.90129 1.38337 8.87996 1.37604C8.82418 1.35706 8.76611 1.34562 8.70729 1.34204C8.69329 1.34071 8.68063 1.33337 8.66663 1.33337H3.99996C3.26463 1.33337 2.66663 1.93137 2.66663 2.66671V13.3334C2.66663 14.0687 3.26463 14.6667 3.99996 14.6667H12C12.7353 14.6667 13.3333 14.0687 13.3333 13.3334V6.00004C13.3333 5.98604 13.326 5.97337 13.3246 5.95871C13.3214 5.89985 13.3099 5.84174 13.2906 5.78604C13.284 5.76471 13.278 5.74404 13.2686 5.72404ZM11.0573 5.33337H9.33329V3.60937L11.0573 5.33337ZM3.99996 13.3334V2.66671H7.99996V6.00004C7.99996 6.17685 8.0702 6.34642 8.19522 6.47145C8.32025 6.59647 8.48981 6.66671 8.66663 6.66671H12L12.0013 13.3334H3.99996Z" fill="#828282"/>
<path d="M5.33337 8.00004H10.6667V9.33337H5.33337V8.00004ZM5.33337 10.6667H10.6667V12H5.33337V10.6667ZM5.33337 5.33337H6.66671V6.66671H5.33337V5.33337Z" fill="#828282"/>
</svg>
