<svg width="28" height="30" viewBox="0 0 28 30" fill="none" xmlns="http://www.w3.org/2000/svg">
<g opacity="0.5">
<path d="M13.9121 2.84521C7.82462 2.84521 2.87207 8.19904 2.87207 14.7797C2.87207 21.3604 7.82462 26.7143 13.9121 26.7143C19.9995 26.7143 24.9521 21.3604 24.9521 14.7797C24.9521 8.19904 19.9995 2.84521 13.9121 2.84521ZM13.9121 24.3274C9.04233 24.3274 5.08007 20.0441 5.08007 14.7797C5.08007 9.51542 9.04233 5.23212 13.9121 5.23212C18.7818 5.23212 22.7441 9.51542 22.7441 14.7797C22.7441 20.0441 18.7818 24.3274 13.9121 24.3274Z" fill="#1B1A57"/>
<path d="M17.0352 18.1548C16.6316 18.5896 16.155 18.9371 15.6309 19.1787C14.6873 19.6094 13.6346 19.6723 12.6529 19.3566C11.6712 19.0409 10.8214 18.3664 10.2489 17.4482L8.41846 18.7837C8.89587 19.5453 9.50324 20.2015 10.208 20.7171C10.9253 21.2414 11.7311 21.6076 12.5794 21.7948C13.4591 21.9888 14.3659 21.9888 15.2456 21.7948C16.0938 21.6074 16.8996 21.2412 17.617 20.7171C17.9625 20.4641 18.2926 20.1705 18.5951 19.8447C18.8954 19.5213 19.1692 19.1632 19.4055 18.7837L17.575 17.4482C17.4164 17.7018 17.2356 17.9384 17.0352 18.1548Z" fill="#1B1A57"/>
<path d="M17.7684 14.7629C18.6787 14.7629 19.4167 13.9651 19.4167 12.981C19.4167 11.997 18.6787 11.1992 17.7684 11.1992C16.8581 11.1992 16.1201 11.997 16.1201 12.981C16.1201 13.9651 16.8581 14.7629 17.7684 14.7629Z" fill="#1B1A57"/>
<path d="M10.0481 14.7796C10.9627 14.7796 11.7041 13.9781 11.7041 12.9894C11.7041 12.0007 10.9627 11.1992 10.0481 11.1992C9.13351 11.1992 8.39209 12.0007 8.39209 12.9894C8.39209 13.9781 9.13351 14.7796 10.0481 14.7796Z" fill="#1B1A57"/>
</g>
</svg>
