<svg width="14" height="14" viewBox="0 0 14 14" fill="none" xmlns="http://www.w3.org/2000/svg">
<g clip-path="url(#clip0_427:5848)">
<path d="M13.5747 5.49425C12.6699 4.02075 10.6119 1.54858 6.99991 1.54858C3.38791 1.54858 1.32991 4.02075 0.425158 5.49425C0.145466 5.94663 -0.00268555 6.46798 -0.00268555 6.99983C-0.00268555 7.53169 0.145466 8.05304 0.425158 8.50542C1.32991 9.97892 3.38791 12.4511 6.99991 12.4511C10.6119 12.4511 12.6699 9.97892 13.5747 8.50542C13.8543 8.05304 14.0025 7.53169 14.0025 6.99983C14.0025 6.46798 13.8543 5.94663 13.5747 5.49425ZM12.5801 7.89467C11.8031 9.15817 10.0443 11.2844 6.99991 11.2844C3.95549 11.2844 2.19674 9.15817 1.41974 7.89467C1.25357 7.62578 1.16555 7.31593 1.16555 6.99983C1.16555 6.68374 1.25357 6.37389 1.41974 6.105C2.19674 4.8415 3.95549 2.71525 6.99991 2.71525C10.0443 2.71525 11.8031 4.83917 12.5801 6.105C12.7462 6.37389 12.8343 6.68374 12.8343 6.99983C12.8343 7.31593 12.7462 7.62578 12.5801 7.89467Z" fill="#000E20"/>
<path d="M6.99992 4.08325C6.42306 4.08325 5.85915 4.25431 5.37951 4.5748C4.89986 4.89529 4.52603 5.35081 4.30527 5.88376C4.08452 6.41671 4.02676 7.00315 4.1393 7.56893C4.25184 8.13471 4.52962 8.65441 4.93753 9.06231C5.34543 9.47022 5.86513 9.748 6.43091 9.86054C6.99668 9.97308 7.58313 9.91532 8.11608 9.69457C8.64903 9.47381 9.10455 9.09998 9.42504 8.62033C9.74553 8.14069 9.91659 7.57678 9.91659 6.99992C9.91566 6.22666 9.60807 5.48533 9.06129 4.93855C8.51451 4.39177 7.77318 4.08418 6.99992 4.08325ZM6.99992 8.74992C6.6538 8.74992 6.31546 8.64728 6.02767 8.45499C5.73989 8.2627 5.51558 7.98939 5.38313 7.66962C5.25068 7.34984 5.21602 6.99798 5.28355 6.65851C5.35107 6.31904 5.51774 6.00722 5.76248 5.76248C6.00722 5.51774 6.31905 5.35107 6.65851 5.28354C6.99798 5.21602 7.34985 5.25068 7.66962 5.38313C7.98939 5.51558 8.2627 5.73988 8.45499 6.02767C8.64728 6.31546 8.74992 6.6538 8.74992 6.99992C8.74992 7.46405 8.56555 7.90917 8.23736 8.23736C7.90917 8.56555 7.46405 8.74992 6.99992 8.74992Z" fill="#000E20"/>
</g>
<defs>
<clipPath id="clip0_427:5848">
<rect width="14" height="14" fill="white"/>
</clipPath>
</defs>
</svg>
