<svg width="54" height="42" viewBox="0 0 54 42" fill="none" xmlns="http://www.w3.org/2000/svg">
<path d="M0.142822 15.7493L25.9612 28.6197C26.2561 28.7903 26.6047 28.8743 26.9532 28.8743C27.3017 28.8743 27.6503 28.7903 27.9452 28.6197L53.7636 15.7493L27.9586 0.261844C27.3621 -0.0872813 26.5444 -0.0872813 25.9478 0.261844L0.142822 15.7493Z" fill="#135BBD"/>
<path d="M43.7097 0H10.1968C8.35019 0 6.84546 1.17862 6.84546 2.625V31.5C6.84546 32.2245 7.59615 32.8125 8.52111 32.8125H45.3854C46.3104 32.8125 47.061 32.2245 47.061 31.5V2.625C47.061 1.17862 45.5597 0 43.7097 0Z" fill="#ECEFF1"/>
<path d="M15.2236 7.875H38.6827C39.6077 7.875 40.3584 7.287 40.3584 6.5625C40.3584 5.838 39.6077 5.25 38.6827 5.25H15.2236C14.2987 5.25 13.548 5.838 13.548 6.5625C13.548 7.287 14.2987 7.875 15.2236 7.875Z" fill="#90A4AE"/>
<path d="M38.6827 10.5H15.2236C14.2987 10.5 13.548 11.088 13.548 11.8125C13.548 12.537 14.2987 13.125 15.2236 13.125H38.6827C39.6077 13.125 40.3584 12.537 40.3584 11.8125C40.3584 11.088 39.6077 10.5 38.6827 10.5Z" fill="#90A4AE"/>
<path d="M28.6288 15.75H15.2236C14.2987 15.75 13.548 16.338 13.548 17.0625C13.548 17.787 14.2987 18.375 15.2236 18.375H28.6288C29.5538 18.375 30.3045 17.787 30.3045 17.0625C30.3045 16.338 29.5538 15.75 28.6288 15.75Z" fill="#90A4AE"/>
<path d="M27.9452 28.6204C27.6503 28.791 27.3017 28.875 26.9532 28.875C26.6047 28.875 26.2561 28.791 25.9612 28.6204L0.142822 15.75V39.375C0.142822 40.824 1.6442 42 3.49412 42H50.4123C52.2622 42 53.7636 40.824 53.7636 39.375V15.75L27.9452 28.6204Z" fill="#135BBD"/>
<path d="M50.4123 42H3.49412C1.61404 42 0.142822 40.8476 0.142822 39.375C0.142822 38.9576 0.397521 38.5639 0.826487 38.3171L25.9612 25.1921C26.2561 25.0215 26.6047 24.9375 26.9532 24.9375C27.3017 24.9375 27.6503 25.0215 27.9452 25.1921L53.0799 38.3171C53.5089 38.5639 53.7636 38.9576 53.7636 39.375C53.7636 40.8476 52.2924 42 50.4123 42Z" fill="#135BBD"/>
</svg>
