<svg width="21" height="21" viewBox="0 0 21 21" fill="none" xmlns="http://www.w3.org/2000/svg">
<g clip-path="url(#clip0_334_10842)">
<path d="M16.3241 0.813569L5.65614 11.4816C5.24869 11.8868 4.92567 12.3689 4.70579 12.8998C4.4859 13.4307 4.37352 14 4.37514 14.5747V15.7498C4.37514 15.9819 4.46733 16.2044 4.63142 16.3685C4.79552 16.5326 5.01807 16.6248 5.25014 16.6248H6.42526C6.99993 16.6264 7.56921 16.5141 8.10015 16.2942C8.63109 16.0743 9.11314 15.7513 9.51839 15.3438L20.1864 4.67582C20.6977 4.16322 20.9849 3.46873 20.9849 2.74469C20.9849 2.02065 20.6977 1.32617 20.1864 0.813569C19.6664 0.316476 18.9747 0.0390625 18.2553 0.0390625C17.5359 0.0390625 16.8442 0.316476 16.3241 0.813569ZM18.9491 3.43857L8.28114 14.1066C7.78775 14.5969 7.12089 14.873 6.42526 14.8748H6.12514V14.5747C6.12696 13.8791 6.40301 13.2122 6.89339 12.7188L17.5614 2.05082C17.7483 1.87228 17.9968 1.77265 18.2553 1.77265C18.5137 1.77265 18.7622 1.87228 18.9491 2.05082C19.1328 2.23502 19.236 2.48455 19.236 2.74469C19.236 3.00484 19.1328 3.25437 18.9491 3.43857Z" fill="#135BBD"/>
<path d="M20.125 7.85663C19.8929 7.85663 19.6704 7.94881 19.5063 8.11291C19.3422 8.277 19.25 8.49956 19.25 8.73162V13.125H15.75C15.0538 13.125 14.3861 13.4016 13.8938 13.8938C13.4016 14.3861 13.125 15.0538 13.125 15.75V19.25H4.375C3.67881 19.25 3.01113 18.9734 2.51884 18.4812C2.02656 17.9889 1.75 17.3212 1.75 16.625V4.375C1.75 3.67881 2.02656 3.01113 2.51884 2.51884C3.01113 2.02656 3.67881 1.75 4.375 1.75H12.2868C12.5188 1.75 12.7414 1.65781 12.9055 1.49372C13.0696 1.32962 13.1618 1.10706 13.1618 0.875C13.1618 0.642936 13.0696 0.420376 12.9055 0.256282C12.7414 0.0921872 12.5188 0 12.2868 0L4.375 0C3.2151 0.00138938 2.10311 0.462772 1.28294 1.28294C0.462772 2.10311 0.00138938 3.2151 0 4.375L0 16.625C0.00138938 17.7849 0.462772 18.8969 1.28294 19.7171C2.10311 20.5372 3.2151 20.9986 4.375 21H14.3001C14.8749 21.0016 15.4443 20.8893 15.9754 20.6694C16.5065 20.4495 16.9887 20.1265 17.3941 19.719L19.7181 17.3932C20.1257 16.988 20.4488 16.506 20.6688 15.9751C20.8888 15.4441 21.0014 14.8748 21 14.3001V8.73162C21 8.49956 20.9078 8.277 20.7437 8.11291C20.5796 7.94881 20.3571 7.85663 20.125 7.85663ZM16.1569 18.4818C15.8051 18.8326 15.3603 19.0755 14.875 19.1818V15.75C14.875 15.5179 14.9672 15.2954 15.1313 15.1313C15.2954 14.9672 15.5179 14.875 15.75 14.875H19.1844C19.0761 15.3593 18.8335 15.8033 18.4844 16.156L16.1569 18.4818Z" fill="#135BBD"/>
</g>
<defs>
<clipPath id="clip0_334_10842">
<rect width="21" height="21" fill="white"/>
</clipPath>
</defs>
</svg>
