<svg width="35" height="35" viewBox="0 0 35 35" fill="none" xmlns="http://www.w3.org/2000/svg">
<g clip-path="url(#clip0_346_9572)">
<path d="M13.125 17.5C14.8556 17.5 16.5473 16.9868 17.9862 16.0254C19.4252 15.0639 20.5467 13.6973 21.2089 12.0985C21.8712 10.4996 22.0445 8.7403 21.7069 7.04296C21.3693 5.34563 20.5359 3.78653 19.3122 2.56282C18.0885 1.33911 16.5294 0.505753 14.832 0.168133C13.1347 -0.169488 11.3754 0.00379125 9.77652 0.666058C8.17767 1.32832 6.8111 2.44983 5.84964 3.88876C4.88818 5.32769 4.375 7.01942 4.375 8.75C4.37732 11.0699 5.29993 13.2942 6.94037 14.9346C8.58082 16.5751 10.8051 17.4977 13.125 17.5ZM13.125 2.91667C14.2787 2.91667 15.4065 3.25879 16.3658 3.89976C17.3251 4.54074 18.0728 5.45178 18.5143 6.51768C18.9558 7.58359 19.0713 8.75647 18.8462 9.88803C18.6212 11.0196 18.0656 12.059 17.2498 12.8748C16.434 13.6906 15.3946 14.2462 14.263 14.4713C13.1315 14.6963 11.9586 14.5808 10.8927 14.1393C9.82678 13.6978 8.91574 12.9501 8.27476 11.9908C7.63379 11.0315 7.29167 9.90373 7.29167 8.75C7.29167 7.20291 7.90625 5.71918 9.00021 4.62521C10.0942 3.53125 11.5779 2.91667 13.125 2.91667Z" fill="#135BBD"/>
<path d="M13.125 20.416C9.64534 20.4203 6.30941 21.8044 3.84891 24.2649C1.38842 26.7254 0.00424514 30.0613 0 33.541C0 33.9278 0.153645 34.2987 0.427136 34.5722C0.700627 34.8457 1.07156 34.9993 1.45833 34.9993C1.84511 34.9993 2.21604 34.8457 2.48953 34.5722C2.76302 34.2987 2.91667 33.9278 2.91667 33.541C2.91667 30.8336 3.99218 28.237 5.90662 26.3226C7.82105 24.4082 10.4176 23.3327 13.125 23.3327C15.8324 23.3327 18.4289 24.4082 20.3434 26.3226C22.2578 28.237 23.3333 30.8336 23.3333 33.541C23.3333 33.9278 23.487 34.2987 23.7605 34.5722C24.034 34.8457 24.4049 34.9993 24.7917 34.9993C25.1784 34.9993 25.5494 34.8457 25.8229 34.5722C26.0964 34.2987 26.25 33.9278 26.25 33.541C26.2458 30.0613 24.8616 26.7254 22.4011 24.2649C19.9406 21.8044 16.6047 20.4203 13.125 20.416Z" fill="#135BBD"/>
<path d="M32.0831 11.4844C31.2715 11.5248 30.509 11.8851 29.9624 12.4864C29.4157 13.0876 29.1296 13.8809 29.1664 14.6927C29.2033 13.8809 28.9171 13.0876 28.3705 12.4864C27.8239 11.8851 27.0614 11.5248 26.2498 11.4844C25.4382 11.5248 24.6757 11.8851 24.129 12.4864C23.5824 13.0876 23.2963 13.8809 23.3331 14.6927C23.3331 17.2156 26.6231 20.1717 28.2623 21.4871C28.5189 21.6925 28.8377 21.8044 29.1664 21.8044C29.4951 21.8044 29.814 21.6925 30.0706 21.4871C31.7098 20.1746 34.9997 17.2156 34.9997 14.6927C35.0366 13.8809 34.7504 13.0876 34.2038 12.4864C33.6572 11.8851 32.8947 11.5248 32.0831 11.4844Z" fill="#135BBD"/>
</g>
<defs>
<clipPath id="clip0_346_9572">
<rect width="35" height="35" fill="white"/>
</clipPath>
</defs>
</svg>
