<svg width="23" height="23" viewBox="0 0 23 23" fill="none" xmlns="http://www.w3.org/2000/svg">
<g clip-path="url(#clip0_287:7520)">
<path d="M22.0416 10.5417C21.7875 10.5417 21.5437 10.6426 21.364 10.8224C21.1843 11.0021 21.0833 11.2458 21.0833 11.5C21.0911 13.7284 20.3247 15.8903 18.9151 17.6162C17.5055 19.3422 15.5402 20.5249 13.3552 20.9624C11.1702 21.3999 8.90102 21.0649 6.93561 20.0147C4.97021 18.9644 3.43056 17.2642 2.57984 15.2046C1.72912 13.145 1.62014 10.8538 2.27153 8.72276C2.92292 6.59169 4.29424 4.753 6.15109 3.52098C8.00794 2.28896 10.235 1.7401 12.4517 1.9682C14.6684 2.1963 16.7371 3.1872 18.3041 4.77154C18.2726 4.78014 18.2406 4.78686 18.2083 4.79167H15.3333C15.0791 4.79167 14.8354 4.89263 14.6557 5.07236C14.4759 5.25208 14.375 5.49583 14.375 5.75C14.375 6.00417 14.4759 6.24792 14.6557 6.42764C14.8354 6.60737 15.0791 6.70833 15.3333 6.70833H18.2083C18.9708 6.70833 19.7021 6.40543 20.2412 5.86627C20.7804 5.3271 21.0833 4.59583 21.0833 3.83333V0.958333C21.0833 0.704168 20.9823 0.460412 20.8026 0.280689C20.6229 0.100967 20.3791 0 20.125 0C19.8708 0 19.6271 0.100967 19.4473 0.280689C19.2676 0.460412 19.1666 0.704168 19.1666 0.958333V2.93729C17.2045 1.18309 14.6998 0.15541 12.071 0.0259733C9.44223 -0.103463 6.84866 0.673188 4.72368 2.22615C2.5987 3.7791 1.07105 6.01429 0.395986 8.55821C-0.279073 11.1021 -0.0606416 13.8007 1.01478 16.2029C2.0902 18.6051 3.95747 20.5655 6.30455 21.7565C8.65163 22.9474 11.3364 23.2968 13.9101 22.7463C16.4838 22.1957 18.7906 20.7786 20.4451 18.7316C22.0996 16.6847 23.0014 14.132 23 11.5C23 11.2458 22.899 11.0021 22.7193 10.8224C22.5396 10.6426 22.2958 10.5417 22.0416 10.5417Z" fill="#135BBD"/>
<path d="M11.5002 5.75C11.246 5.75 11.0023 5.85097 10.8226 6.03069C10.6428 6.21041 10.5419 6.45417 10.5419 6.70833V11.5C10.5419 11.7541 10.6429 11.9979 10.8227 12.1775L13.6977 15.0525C13.8784 15.2271 14.1205 15.3237 14.3718 15.3215C14.623 15.3193 14.8634 15.2186 15.0411 15.0409C15.2188 14.8632 15.3195 14.6228 15.3217 14.3716C15.3239 14.1203 15.2273 13.8782 15.0527 13.6975L12.4585 11.1033V6.70833C12.4585 6.45417 12.3576 6.21041 12.1778 6.03069C11.9981 5.85097 11.7544 5.75 11.5002 5.75Z" fill="#135BBD"/>
</g>
<defs>
<clipPath id="clip0_287:7520">
<rect width="23" height="23" fill="white"/>
</clipPath>
</defs>
</svg>
