<svg width="16" height="16" viewBox="0 0 16 16" fill="none" xmlns="http://www.w3.org/2000/svg">
<path d="M4.99927 7.33337C5.55155 7.33337 5.99927 6.88566 5.99927 6.33337C5.99927 5.78109 5.55155 5.33337 4.99927 5.33337C4.44698 5.33337 3.99927 5.78109 3.99927 6.33337C3.99927 6.88566 4.44698 7.33337 4.99927 7.33337Z" fill="#135BBD"/>
<path d="M6.99927 9.33329L5.99927 7.99996L3.99927 10.6666H11.9993L8.99927 6.66663L6.99927 9.33329Z" fill="#135BBD"/>
<path d="M13.3326 2.66663H2.66597C1.93064 2.66663 1.33264 3.26463 1.33264 3.99996V12C1.33264 12.7353 1.93064 13.3333 2.66597 13.3333H13.3326C14.068 13.3333 14.666 12.7353 14.666 12V3.99996C14.666 3.26463 14.068 2.66663 13.3326 2.66663ZM2.66597 12V3.99996H13.3326L13.334 12H2.66597Z" fill="#135BBD"/>
</svg>
