<svg width="23" height="23" viewBox="0 0 23 23" fill="none" xmlns="http://www.w3.org/2000/svg">
<g clip-path="url(#clip0_287:7516)">
<path d="M17.25 0H7.66671C6.73543 0.00122511 5.82469 0.273801 5.04587 0.784395C4.26704 1.29499 3.65388 2.02147 3.28137 2.875H1.91671C1.66254 2.875 1.41879 2.97597 1.23906 3.15569C1.05934 3.33541 0.958374 3.57917 0.958374 3.83333C0.958374 4.0875 1.05934 4.33125 1.23906 4.51098C1.41879 4.6907 1.66254 4.79167 1.91671 4.79167H2.87504V6.70833H1.91671C1.66254 6.70833 1.41879 6.8093 1.23906 6.98902C1.05934 7.16875 0.958374 7.4125 0.958374 7.66667C0.958374 7.92083 1.05934 8.16459 1.23906 8.34431C1.41879 8.52403 1.66254 8.625 1.91671 8.625H2.87504V10.5417H1.91671C1.66254 10.5417 1.41879 10.6426 1.23906 10.8224C1.05934 11.0021 0.958374 11.2458 0.958374 11.5C0.958374 11.7542 1.05934 11.9979 1.23906 12.1776C1.41879 12.3574 1.66254 12.4583 1.91671 12.4583H2.87504V14.375H1.91671C1.66254 14.375 1.41879 14.476 1.23906 14.6557C1.05934 14.8354 0.958374 15.0792 0.958374 15.3333C0.958374 15.5875 1.05934 15.8313 1.23906 16.011C1.41879 16.1907 1.66254 16.2917 1.91671 16.2917H2.87504V18.2083H1.91671C1.66254 18.2083 1.41879 18.3093 1.23906 18.489C1.05934 18.6687 0.958374 18.9125 0.958374 19.1667C0.958374 19.4208 1.05934 19.6646 1.23906 19.8443C1.41879 20.024 1.66254 20.125 1.91671 20.125H3.28137C3.65388 20.9785 4.26704 21.705 5.04587 22.2156C5.82469 22.7262 6.73543 22.9988 7.66671 23H17.25C18.5204 22.9985 19.7383 22.4932 20.6366 21.5949C21.5349 20.6966 22.0402 19.4787 22.0417 18.2083V4.79167C22.0402 3.5213 21.5349 2.30341 20.6366 1.40513C19.7383 0.506845 18.5204 0.0015217 17.25 0V0ZM20.125 18.2083C20.125 18.9708 19.8221 19.7021 19.283 20.2413C18.7438 20.7804 18.0125 21.0833 17.25 21.0833H7.66671C6.90421 21.0833 6.17294 20.7804 5.63378 20.2413C5.09461 19.7021 4.79171 18.9708 4.79171 18.2083V4.79167C4.79171 4.02917 5.09461 3.2979 5.63378 2.75873C6.17294 2.21957 6.90421 1.91667 7.66671 1.91667H17.25C18.0125 1.91667 18.7438 2.21957 19.283 2.75873C19.8221 3.2979 20.125 4.02917 20.125 4.79167V18.2083ZM12.4584 11.5C13.2209 11.5 13.9521 11.1971 14.4913 10.6579C15.0305 10.1188 15.3334 9.3875 15.3334 8.625C15.3334 7.8625 15.0305 7.13124 14.4913 6.59207C13.9521 6.0529 13.2209 5.75 12.4584 5.75C11.6959 5.75 10.9646 6.0529 10.4254 6.59207C9.88628 7.13124 9.58337 7.8625 9.58337 8.625C9.58337 9.3875 9.88628 10.1188 10.4254 10.6579C10.9646 11.1971 11.6959 11.5 12.4584 11.5ZM17.25 17.25C17.25 17.5042 17.1491 17.7479 16.9694 17.9276C16.7896 18.1074 16.5459 18.2083 16.2917 18.2083C16.0375 18.2083 15.7938 18.1074 15.6141 17.9276C15.4343 17.7479 15.3334 17.5042 15.3334 17.25C15.3334 16.4875 15.0305 15.7562 14.4913 15.2171C13.9521 14.6779 13.2209 14.375 12.4584 14.375C11.6959 14.375 10.9646 14.6779 10.4254 15.2171C9.88628 15.7562 9.58337 16.4875 9.58337 17.25C9.58337 17.5042 9.48241 17.7479 9.30268 17.9276C9.12296 18.1074 8.87921 18.2083 8.62504 18.2083C8.37088 18.2083 8.12712 18.1074 7.9474 17.9276C7.76767 17.7479 7.66671 17.5042 7.66671 17.25C7.86892 10.9173 17.0497 10.9192 17.25 17.25Z" fill="#135BBD"/>
</g>
<defs>
<clipPath id="clip0_287:7516">
<rect width="23" height="23" fill="white"/>
</clipPath>
</defs>
</svg>
