<svg width="20" height="20" viewBox="0 0 20 20" fill="none" xmlns="http://www.w3.org/2000/svg">
<g clip-path="url(#clip0_122:488)">
<path d="M10 0.0354004C7.79495 0.0378263 5.68089 0.914797 4.12161 2.47392C2.56232 4.03305 1.68514 6.14702 1.6825 8.35207C1.6825 10.4937 3.34083 13.8454 6.61166 18.3137C7.00105 18.8472 7.51088 19.2811 8.09966 19.5803C8.68845 19.8795 9.33956 20.0354 10 20.0354C10.6604 20.0354 11.3115 19.8795 11.9003 19.5803C12.4891 19.2811 12.9989 18.8472 13.3883 18.3137C16.6592 13.8454 18.3175 10.4937 18.3175 8.35207C18.3148 6.14702 17.4377 4.03305 15.8784 2.47392C14.3191 0.914797 12.205 0.0378263 10 0.0354004ZM10 11.6671C9.34072 11.6671 8.69626 11.4716 8.1481 11.1053C7.59993 10.739 7.17269 10.2184 6.9204 9.60935C6.6681 9.00026 6.60209 8.33004 6.73071 7.68343C6.85933 7.03683 7.1768 6.44289 7.64297 5.97671C8.10915 5.51054 8.70309 5.19307 9.34969 5.06445C9.9963 4.93583 10.6665 5.00184 11.2756 5.25414C11.8847 5.50643 12.4053 5.93367 12.7716 6.48183C13.1378 7.03 13.3333 7.67446 13.3333 8.33373C13.3333 9.21779 12.9821 10.0656 12.357 10.6908C11.7319 11.3159 10.8841 11.6671 10 11.6671Z" fill="#FCFDFF"/>
</g>
<defs>
<clipPath id="clip0_122:488">
<rect width="20" height="20" fill="white"/>
</clipPath>
</defs>
</svg>
