<svg width="24" height="25" viewBox="0 0 24 25" fill="none" xmlns="http://www.w3.org/2000/svg">
<g clip-path="url(#clip0_773:9791)">
<path d="M17.9209 2.00459C17.9206 2.40228 17.7623 2.78355 17.4809 3.06459L9.80895 10.7366C9.57673 10.9687 9.39252 11.2444 9.26684 11.5477C9.14117 11.8511 9.07648 12.1762 9.07648 12.5046C9.07648 12.8329 9.14117 13.1581 9.26684 13.4614C9.39252 13.7648 9.57673 14.0404 9.80895 14.2726L17.4709 21.9346C17.7442 22.2175 17.8954 22.5964 17.892 22.9897C17.8885 23.383 17.7308 23.7592 17.4527 24.0373C17.1746 24.3154 16.7983 24.4732 16.405 24.4766C16.0118 24.48 15.6329 24.3288 15.3499 24.0556L7.68795 16.3996C6.65771 15.3673 6.0791 13.9685 6.0791 12.5101C6.0791 11.0517 6.65771 9.65285 7.68795 8.62059L15.3599 0.943587C15.5697 0.733671 15.8371 0.5907 16.1281 0.532766C16.4192 0.474832 16.7209 0.504538 16.9951 0.618126C17.2692 0.731713 17.5036 0.924077 17.6684 1.17088C17.8332 1.41767 17.9211 1.70782 17.9209 2.00459V2.00459Z" fill="#FCFDFF"/>
</g>
<defs>
<clipPath id="clip0_773:9791">
<rect width="24" height="24" fill="white" transform="translate(0 0.5)"/>
</clipPath>
</defs>
</svg>
