<svg width="24" height="25" viewBox="0 0 24 25" fill="none" xmlns="http://www.w3.org/2000/svg">
<path d="M2.00002 14.5C3.10459 14.5 4.00003 13.6046 4.00003 12.5C4.00003 11.3954 3.10459 10.5 2.00002 10.5C0.895438 10.5 0 11.3954 0 12.5C0 13.6046 0.895438 14.5 2.00002 14.5Z" fill="#FCFDFF"/>
<path d="M12 14.5C13.1046 14.5 14 13.6046 14 12.5C14 11.3954 13.1046 10.5 12 10.5C10.8954 10.5 10 11.3954 10 12.5C10 13.6046 10.8954 14.5 12 14.5Z" fill="#FCFDFF"/>
<path d="M22 14.5C23.1046 14.5 24.0001 13.6046 24.0001 12.5C24.0001 11.3954 23.1046 10.5 22 10.5C20.8954 10.5 20 11.3954 20 12.5C20 13.6046 20.8954 14.5 22 14.5Z" fill="#FCFDFF"/>
</svg>
