<svg width="21" height="21" viewBox="0 0 21 21" fill="none" xmlns="http://www.w3.org/2000/svg">
<g clip-path="url(#clip0_334_10872)">
<path d="M11.3749 0.874444C11.3749 0.64238 11.467 0.41982 11.6311 0.255726C11.7952 0.0916315 12.0178 -0.000555778 12.2499 -0.000555778C14.5697 0.00199187 16.7938 0.924682 18.4342 2.56507C20.0746 4.20547 20.9973 6.42958 20.9998 8.74945C20.9998 8.98151 20.9077 9.20407 20.7436 9.36816C20.5795 9.53226 20.3569 9.62445 20.1248 9.62445C19.8928 9.62445 19.6702 9.53226 19.5061 9.36816C19.342 9.20407 19.2498 8.98151 19.2498 8.74945C19.2478 6.89357 18.5096 5.1143 17.1973 3.802C15.885 2.4897 14.1057 1.75153 12.2499 1.74944C12.0178 1.74944 11.7952 1.65726 11.6311 1.49316C11.467 1.32907 11.3749 1.10651 11.3749 0.874444ZM12.2499 5.24944C13.1781 5.24944 14.0683 5.61819 14.7247 6.27457C15.3811 6.93095 15.7498 7.82119 15.7498 8.74945C15.7498 8.98151 15.842 9.20407 16.0061 9.36816C16.1702 9.53226 16.3928 9.62445 16.6248 9.62445C16.8569 9.62445 17.0795 9.53226 17.2436 9.36816C17.4077 9.20407 17.4998 8.98151 17.4998 8.74945C17.4985 7.35749 16.9449 6.02293 15.9606 5.03867C14.9764 4.0544 13.6418 3.50083 12.2499 3.49944C12.0178 3.49944 11.7952 3.59163 11.6311 3.75573C11.467 3.91982 11.3749 4.14238 11.3749 4.37444C11.3749 4.60651 11.467 4.82907 11.6311 4.99316C11.7952 5.15726 12.0178 5.24944 12.2499 5.24944ZM20.2062 14.6461C20.7133 15.1545 20.998 15.8433 20.998 16.5614C20.998 17.2795 20.7133 17.9683 20.2062 18.4768L19.41 19.3947C12.2437 26.2556 -5.195 8.82119 1.55999 1.63219L2.56624 0.757194C3.07528 0.264287 3.75793 -0.00838783 4.46648 -0.00183779C5.17503 0.00471225 5.85251 0.28996 6.35236 0.792194C6.37948 0.819319 8.00086 2.92544 8.00086 2.92544C8.48196 3.43087 8.74977 4.10226 8.74863 4.80005C8.74749 5.49784 8.47748 6.16835 7.99473 6.67219L6.98148 7.9462C7.54222 9.30867 8.36666 10.5469 9.40742 11.5898C10.4482 12.6326 11.6848 13.4596 13.0461 14.0231L14.328 13.0037C14.8319 12.5213 15.5023 12.2516 16.1999 12.2507C16.8974 12.2497 17.5686 12.5175 18.0738 12.9984C18.0738 12.9984 20.1791 14.6189 20.2062 14.6461ZM19.0022 15.9183C19.0022 15.9183 16.9083 14.3074 16.8812 14.2803C16.701 14.1016 16.4574 14.0013 16.2035 14.0013C15.9497 14.0013 15.7061 14.1016 15.5258 14.2803C15.5022 14.3048 13.7373 15.7109 13.7373 15.7109C13.6184 15.8056 13.4769 15.8677 13.3267 15.891C13.1765 15.9143 13.0228 15.8981 12.8807 15.8439C11.1171 15.1873 9.51525 14.1593 8.18359 12.8296C6.85192 11.4999 5.82159 9.89957 5.16236 8.13695C5.10391 7.99297 5.08485 7.83602 5.10715 7.68224C5.12945 7.52846 5.1923 7.38339 5.28923 7.26195C5.28923 7.26195 6.69536 5.49619 6.71898 5.47344C6.89772 5.29318 6.998 5.04961 6.998 4.79576C6.998 4.54191 6.89772 4.29833 6.71898 4.11807C6.69186 4.09182 5.08098 1.99619 5.08098 1.99619C4.89802 1.83214 4.65924 1.74428 4.41358 1.75062C4.16792 1.75697 3.93399 1.85704 3.75974 2.03032L2.75349 2.90532C-2.18326 8.84132 12.9289 23.1152 18.1307 18.1994L18.9278 17.2807C19.1146 17.1077 19.2268 16.8688 19.2407 16.6146C19.2546 16.3603 19.1691 16.1107 19.0022 15.9183Z" fill="#135BBD"/>
</g>
<defs>
<clipPath id="clip0_334_10872">
<rect width="21" height="21" fill="white"/>
</clipPath>
</defs>
</svg>
