<svg width="27" height="24" viewBox="0 0 27 24" fill="none" xmlns="http://www.w3.org/2000/svg">
<path d="M10.7303 12C13.1293 12 15.0802 10.206 15.0802 8C15.0802 5.794 13.1293 4 10.7303 4C8.33137 4 6.38046 5.794 6.38046 8C6.38046 10.206 8.33137 12 10.7303 12ZM12.3615 13H9.09912C5.50071 13 2.57434 15.691 2.57434 19V20H18.8863V19C18.8863 15.691 15.9599 13 12.3615 13Z" fill="#2F80ED"/>
<path d="M18.4556 11.048C19.1179 10.0101 19.404 8.80528 19.2723 7.60797C19.0777 5.82397 17.9945 4.24697 16.2242 3.16797L15.0225 4.83397C16.2394 5.57597 16.9799 6.63297 17.1083 7.80797C17.1674 8.35407 17.0935 8.90543 16.8918 9.42195C16.6902 9.93847 16.3659 10.4072 15.9425 10.794L14.6462 11.986L16.4058 12.461C21.0079 13.701 21.0612 17.957 21.0612 18H23.2361C23.2361 16.211 22.1965 12.715 18.4556 11.048Z" fill="#2F80ED"/>
</svg>
