<svg width="32" height="32" viewBox="0 0 32 32" fill="none" xmlns="http://www.w3.org/2000/svg">
<g clip-path="url(#clip0_302:9421)">
<path d="M25.3333 0H6.66667C4.89921 0.00211714 3.20474 0.705176 1.95496 1.95496C0.705176 3.20474 0.00211714 4.89921 0 6.66667L0 25.3333C0.00211714 27.1008 0.705176 28.7953 1.95496 30.045C3.20474 31.2948 4.89921 31.9979 6.66667 32H25.3333C27.1008 31.9979 28.7953 31.2948 30.045 30.045C31.2948 28.7953 31.9979 27.1008 32 25.3333V6.66667C31.9979 4.89921 31.2948 3.20474 30.045 1.95496C28.7953 0.705176 27.1008 0.00211714 25.3333 0V0ZM29.3333 25.3333C29.3333 26.3942 28.9119 27.4116 28.1618 28.1618C27.4116 28.9119 26.3942 29.3333 25.3333 29.3333H6.66667C5.6058 29.3333 4.58839 28.9119 3.83824 28.1618C3.08809 27.4116 2.66667 26.3942 2.66667 25.3333V6.66667C2.66667 5.6058 3.08809 4.58839 3.83824 3.83824C4.58839 3.08809 5.6058 2.66667 6.66667 2.66667H25.3333C26.3942 2.66667 27.4116 3.08809 28.1618 3.83824C28.9119 4.58839 29.3333 5.6058 29.3333 6.66667V25.3333Z" fill="#FCFDFF"/>
<path d="M12.4437 21.2254L7.21834 16.0001C6.96831 15.7501 6.62923 15.6097 6.27568 15.6097C5.92212 15.6097 5.58305 15.7501 5.33301 16.0001C5.08305 16.2501 4.94263 16.5892 4.94263 16.9427C4.94263 17.2963 5.08305 17.6354 5.33301 17.8854L10.5583 23.1107C10.806 23.3585 11.1 23.555 11.4236 23.6891C11.7472 23.8231 12.0941 23.8922 12.4443 23.8922C12.7946 23.8922 13.1415 23.8231 13.4651 23.6891C13.7887 23.555 14.0827 23.3585 14.3303 23.1107L26.6663 10.7747C26.9163 10.5247 27.0567 10.1856 27.0567 9.83207C27.0567 9.47852 26.9163 9.13944 26.6663 8.8894V8.8894C26.4163 8.63944 26.0772 8.49902 25.7237 8.49902C25.3701 8.49902 25.031 8.63944 24.781 8.8894L12.4437 21.2254Z" fill="#FCFDFF"/>
</g>
<defs>
<clipPath id="clip0_302:9421">
<rect width="32" height="32" fill="white"/>
</clipPath>
</defs>
</svg>
