<svg width="61" height="49" viewBox="0 0 61 49" fill="none" xmlns="http://www.w3.org/2000/svg">
<path d="M52.7564 21.5606C54.5427 19.9726 55.7256 17.3309 55.7256 14.3534C55.7256 9.48239 52.6116 5.54285 48.7614 5.54285C44.9112 5.54285 41.7972 9.48239 41.7972 14.3534C41.7972 17.3309 42.9679 19.9726 44.7663 21.5606C43.2335 22.2325 41.8334 23.2708 40.6506 24.6145C39.0212 22.8585 37.1021 21.5148 35.002 20.7208C37.5487 18.7663 39.2626 15.2085 39.2626 11.162C39.2626 4.99315 35.3158 0 30.4397 0C25.5635 0 21.6167 5.00842 21.6167 11.162C21.6167 15.2085 23.3186 18.7663 25.8773 20.7208C23.8013 21.5148 21.9064 22.8433 20.2891 24.5687C19.1063 23.2555 17.7303 22.2325 16.2216 21.5759C18.0079 19.9878 19.1907 17.3462 19.1907 14.3687C19.1907 9.49766 16.0768 5.55812 12.2266 5.55812C8.37634 5.55812 5.26237 9.49766 5.26237 14.3687C5.26237 17.3462 6.43312 19.9878 8.2315 21.5759C3.43985 23.6678 0 29.4244 0 36.1888V37.1966C0 37.2272 0.0241393 37.2577 0.0482786 37.2577H14.8095C14.725 38.0975 14.6767 38.9679 14.6767 39.8383V40.8766C14.6767 45.3658 17.5493 49 21.0977 49H39.8057C43.3542 49 46.2267 45.3658 46.2267 40.8766V39.8383C46.2267 38.9679 46.1785 38.0975 46.094 37.2577H60.9517C60.9759 37.2577 61 37.2272 61 37.1966V36.1888C60.9759 29.4092 57.5481 23.6525 52.7564 21.5606ZM43.7283 14.3381C43.7283 10.8261 45.9854 7.97071 48.7614 7.97071C51.5374 7.97071 53.7944 10.8261 53.7944 14.3381C53.7944 17.8043 51.5857 20.6292 48.8579 20.7055C48.8217 20.7055 48.7976 20.7055 48.7614 20.7055C48.7252 20.7055 48.701 20.7055 48.6648 20.7055C45.925 20.6444 43.7283 17.8196 43.7283 14.3381ZM23.5237 11.162C23.5237 6.35214 26.6136 2.44313 30.4155 2.44313C34.2175 2.44313 37.3073 6.35214 37.3073 11.162C37.3073 15.804 34.4226 19.6061 30.8138 19.8657C30.681 19.8657 30.5483 19.8657 30.4155 19.8657C30.2827 19.8657 30.15 19.8657 30.0172 19.8657C26.4084 19.6061 23.5237 15.804 23.5237 11.162ZM7.1573 14.3381C7.1573 10.8261 9.41433 7.97071 12.1903 7.97071C14.9664 7.97071 17.2234 10.8261 17.2234 14.3381C17.2234 17.8043 15.0146 20.6292 12.2869 20.7055C12.2507 20.7055 12.2266 20.7055 12.1903 20.7055C12.1541 20.7055 12.13 20.7055 12.0938 20.7055C9.36605 20.6444 7.1573 17.8196 7.1573 14.3381ZM15.1474 34.7993H1.95528C2.49842 28.2945 6.84349 23.1945 12.1179 23.1486C12.1421 23.1486 12.1662 23.1486 12.1903 23.1486C12.2145 23.1486 12.2386 23.1486 12.2628 23.1486C14.7732 23.1639 17.0665 24.3397 18.8407 26.2484C17.1027 28.6304 15.8112 31.5622 15.1474 34.7993ZM44.2715 40.8766C44.2715 44.0069 42.2558 46.5569 39.7816 46.5569H21.0736C18.5993 46.5569 16.5837 44.0069 16.5837 40.8766V39.8383C16.5837 30.3559 22.5702 22.5989 30.0172 22.3241C30.15 22.3394 30.2948 22.3394 30.4276 22.3394C30.5603 22.3394 30.7052 22.3394 30.8379 22.3241C38.2849 22.5989 44.2715 30.3559 44.2715 39.8383V40.8766ZM45.7078 34.7993C45.0439 31.5774 43.7766 28.6915 42.0507 26.3094C43.837 24.3549 46.1543 23.1792 48.689 23.1486C48.7131 23.1486 48.7372 23.1486 48.7614 23.1486C48.7855 23.1486 48.8097 23.1486 48.8338 23.1486C54.1082 23.1945 58.4533 28.2945 58.9964 34.7993H45.7078Z" fill="black"/>
</svg>
