<svg width="23" height="23" viewBox="0 0 23 23" fill="none" xmlns="http://www.w3.org/2000/svg">
<g clip-path="url(#clip0_287:7528)">
<path d="M20.8303 15.7167C20.5085 14.7679 19.8978 13.9435 19.0839 13.3592C18.27 12.7749 17.2936 12.4599 16.2917 12.4584H12.4583V11.4196C13.8799 11.1793 15.1594 10.4137 16.0431 9.27457C16.9269 8.13543 17.3504 6.70585 17.2299 5.26915C17.1093 3.83244 16.4534 2.49346 15.3922 1.51754C14.3309 0.541626 12.9418 0 11.5 0C10.0582 0 8.6691 0.541626 7.60786 1.51754C6.54661 2.49346 5.89071 3.83244 5.77015 5.26915C5.64958 6.70585 6.07314 8.13543 6.95689 9.27457C7.84064 10.4137 9.12008 11.1793 10.5417 11.4196V12.4584H6.70834C5.70639 12.4599 4.73004 12.7749 3.91612 13.3592C3.1022 13.9435 2.49152 14.7679 2.16967 15.7167C1.34751 16.1134 0.693876 16.7904 0.326361 17.626C-0.0411541 18.4616 -0.0984241 19.4009 0.164854 20.2749C0.428132 21.149 0.994675 21.9004 1.76256 22.3939C2.53044 22.8875 3.44926 23.0909 4.35371 22.9674C5.25816 22.844 6.08886 22.4018 6.69638 21.7205C7.3039 21.0392 7.64835 20.1634 7.66776 19.2508C7.68716 18.3382 7.38026 17.4486 6.80226 16.7421C6.22425 16.0355 5.41309 15.5585 4.51471 15.3967C4.78413 15.0772 5.11996 14.8203 5.49881 14.6438C5.87766 14.4674 6.29042 14.3757 6.70834 14.3751H10.5417V15.4551C9.63829 15.6884 8.85099 16.2431 8.32734 17.0153C7.8037 17.7875 7.57966 18.7242 7.69722 19.6497C7.81479 20.5753 8.26588 21.4262 8.96595 22.043C9.66602 22.6598 10.567 23.0001 11.5 23.0001C12.433 23.0001 13.334 22.6598 14.0341 22.043C14.7341 21.4262 15.1852 20.5753 15.3028 19.6497C15.4203 18.7242 15.1963 17.7875 14.6727 17.0153C14.149 16.2431 13.3617 15.6884 12.4583 15.4551V14.3751H16.2917C16.7094 14.3753 17.122 14.4666 17.5008 14.6425C17.8797 14.8185 18.2156 15.0748 18.4853 15.3938C17.5869 15.5556 16.7758 16.0327 16.1978 16.7392C15.6197 17.4457 15.3128 18.3353 15.3323 19.2479C15.3517 20.1606 15.6961 21.0363 16.3036 21.7176C16.9111 22.3989 17.7419 22.8411 18.6463 22.9645C19.5507 23.088 20.4696 22.8846 21.2374 22.3911C22.0053 21.8975 22.5719 21.1461 22.8352 20.272C23.0984 19.398 23.0412 18.4587 22.6736 17.6231C22.3061 16.7875 21.6525 16.1105 20.8303 15.7139V15.7167ZM7.66667 5.75008C7.66667 4.99192 7.89149 4.25078 8.3127 3.62039C8.73392 2.99 9.3326 2.49867 10.0331 2.20854C10.7335 1.9184 11.5043 1.84249 12.2479 1.9904C12.9914 2.13831 13.6745 2.5034 14.2106 3.0395C14.7467 3.5756 15.1118 4.25864 15.2597 5.00223C15.4076 5.74582 15.3317 6.51658 15.0415 7.21703C14.7514 7.91748 14.2601 8.51617 13.6297 8.93738C12.9993 9.35859 12.2582 9.58341 11.5 9.58341C10.4833 9.58341 9.50832 9.17954 8.78943 8.46065C8.07054 7.74176 7.66667 6.76674 7.66667 5.75008ZM5.75 19.1667C5.75 19.5458 5.63759 19.9164 5.42699 20.2316C5.21638 20.5468 4.91704 20.7924 4.56681 20.9375C4.21659 21.0826 3.83121 21.1205 3.45941 21.0466C3.08762 20.9726 2.7461 20.7901 2.47805 20.522C2.21 20.254 2.02745 19.9125 1.9535 19.5407C1.87954 19.1689 1.9175 18.7835 2.06257 18.4333C2.20764 18.083 2.4533 17.7837 2.76849 17.5731C3.08369 17.3625 3.45426 17.2501 3.83334 17.2501C4.34167 17.2501 4.82918 17.452 5.18863 17.8115C5.54807 18.1709 5.75 18.6584 5.75 19.1667ZM13.4167 19.1667C13.4167 19.5458 13.3043 19.9164 13.0937 20.2316C12.883 20.5468 12.5837 20.7924 12.2335 20.9375C11.8833 21.0826 11.4979 21.1205 11.1261 21.0466C10.7543 20.9726 10.4128 20.7901 10.1447 20.522C9.87667 20.254 9.69412 19.9125 9.62017 19.5407C9.54621 19.1689 9.58417 18.7835 9.72923 18.4333C9.8743 18.083 10.12 17.7837 10.4352 17.5731C10.7504 17.3625 11.1209 17.2501 11.5 17.2501C12.0083 17.2501 12.4958 17.452 12.8553 17.8115C13.2147 18.1709 13.4167 18.6584 13.4167 19.1667ZM19.1667 21.0834C18.7876 21.0834 18.417 20.971 18.1018 20.7604C17.7866 20.5498 17.541 20.2504 17.3959 19.9002C17.2508 19.55 17.2129 19.1646 17.2868 18.7928C17.3608 18.421 17.5433 18.0795 17.8114 17.8115C18.0794 17.5434 18.4209 17.3609 18.7927 17.2869C19.1645 17.213 19.5499 17.2509 19.9001 17.396C20.2504 17.541 20.5497 17.7867 20.7603 18.1019C20.9709 18.4171 21.0833 18.7877 21.0833 19.1667C21.0833 19.6751 20.8814 20.1626 20.522 20.522C20.1625 20.8815 19.675 21.0834 19.1667 21.0834Z" fill="#135BBD"/>
</g>
<defs>
<clipPath id="clip0_287:7528">
<rect width="23" height="23" fill="white"/>
</clipPath>
</defs>
</svg>
