<svg width="45" height="43" viewBox="0 0 45 43" fill="none" xmlns="http://www.w3.org/2000/svg">
<path d="M30.863 20.361H14.5887V36.9401H18.8025V42.7419L25.8325 36.9401H44.896V16.5791H30.863V20.361ZM38.6101 30.4336H20.874V29.5536H38.6101V30.4336ZM38.6101 27.9861H20.874V27.1061H38.6101V27.9861ZM38.6101 25.5386H20.874V24.6586H38.6101V25.5386Z" fill="#BDBDBD"/>
<path d="M30.863 16.5791V0H0.555786V20.361H4.7695V26.1628L11.7995 20.361H14.5888H30.8637V16.5791H30.863ZM23.2213 10.4912C21.9236 10.0347 21.1207 9.36719 21.1207 8.2555C21.1207 7.02625 22.1474 6.11325 23.6924 6.11325C24.5071 6.11325 25.096 6.30094 25.4501 6.49963L25.1674 7.33081C24.9076 7.18988 24.3762 6.95613 23.6571 6.95613C22.5721 6.95613 22.1585 7.60031 22.1585 8.13863C22.1585 8.87631 22.6414 9.23931 23.7388 9.66006C25.0843 10.1757 25.7681 10.8192 25.7681 11.9783C25.7681 13.1952 24.8605 14.2491 22.9836 14.2491C22.2167 14.2491 21.3805 14.0271 20.9551 13.7452L21.2142 12.8906C21.6742 13.1718 22.3463 13.4062 23.0543 13.4062C24.1046 13.4062 24.7171 12.8562 24.7171 12.0601C24.7191 11.3224 24.2951 10.901 23.2213 10.4912ZM7.91488 10.4912C6.61724 10.0347 5.81426 9.36719 5.81426 8.2555C5.81426 7.02625 6.84102 6.11325 8.386 6.11325C9.20075 6.11325 9.78965 6.30094 10.1437 6.49963L9.861 7.33081C9.6012 7.18988 9.06981 6.95613 8.35067 6.95613C7.26571 6.95613 6.8521 7.60031 6.8521 8.13863C6.8521 8.87631 7.335 9.23931 8.43242 9.66006C9.77787 10.1757 10.4617 10.8192 10.4617 11.9783C10.4617 13.1952 9.55409 14.2491 7.67725 14.2491C6.9103 14.2491 6.07407 14.0271 5.64868 13.7452L5.90779 12.8906C6.36782 13.1718 7.03986 13.4062 7.74791 13.4062C8.79822 13.4062 9.41068 12.8562 9.41068 12.0601C9.41275 11.3224 8.98875 10.901 7.91488 10.4912ZM13.0251 7.26H13.0015C12.978 8.24312 12.9184 9.56588 12.8477 10.7484L12.635 14.1316H11.6561L12.2103 6.24181H13.5205L14.8763 10.0581C15.2068 11.0296 15.4784 11.8958 15.6793 12.716H15.7146C15.9155 11.9199 16.1975 11.0529 16.5522 10.0581L17.9677 6.24181H19.2771L19.7731 14.1316H18.7699L18.569 10.6666C18.5108 9.56656 18.4395 8.24312 18.4512 7.26H18.4166C18.145 8.18469 17.8145 9.16781 17.4141 10.2568L16.0104 14.0848H15.231L13.9459 10.3263C13.5676 9.21456 13.2489 8.19637 13.0251 7.26Z" fill="#135BBD"/>
</svg>
