<svg width="23" height="23" viewBox="0 0 23 23" fill="none" xmlns="http://www.w3.org/2000/svg">
<path d="M19.2981 23C18.9436 22.999 18.5928 22.9278 18.2659 22.7905C17.9391 22.6531 17.6427 22.4524 17.3939 22.1998L11.5002 16.3405L5.60641 22.2036C5.22789 22.5877 4.74246 22.8487 4.21339 22.9528C3.68432 23.057 3.13616 22.9992 2.64037 22.7873C2.13965 22.5859 1.71131 22.2381 1.41126 21.7895C1.11122 21.3409 0.95343 20.8123 0.958492 20.2726V4.79167C0.958492 3.52084 1.46333 2.30206 2.36194 1.40345C3.26055 0.504835 4.47933 0 5.75016 0L17.2502 0C17.8794 0 18.5025 0.12394 19.0839 0.364744C19.6652 0.605548 20.1934 0.958499 20.6384 1.40345C21.0833 1.84839 21.4363 2.37662 21.6771 2.95798C21.9179 3.53933 22.0418 4.16242 22.0418 4.79167V20.2726C22.0472 20.8118 21.89 21.3402 21.5906 21.7887C21.2913 22.2373 20.8638 22.5852 20.3638 22.7873C20.0263 22.9284 19.664 23.0007 19.2981 23ZM5.75016 1.91667C4.98766 1.91667 4.25639 2.21957 3.71723 2.75873C3.17806 3.2979 2.87516 4.02917 2.87516 4.79167V20.2726C2.87481 20.4323 2.9218 20.5885 3.01019 20.7215C3.09858 20.8545 3.2244 20.9583 3.37176 21.0198C3.51912 21.0814 3.68141 21.0978 3.83813 21.0672C3.99485 21.0365 4.13897 20.9601 4.25228 20.8476L10.8293 14.3108C11.0089 14.1323 11.2518 14.0321 11.505 14.0321C11.7581 14.0321 12.001 14.1323 12.1806 14.3108L18.75 20.8457C18.8633 20.9582 19.0074 21.0346 19.1641 21.0653C19.3208 21.0959 19.4831 21.0794 19.6305 21.0179C19.7778 20.9564 19.9037 20.8526 19.992 20.7196C20.0804 20.5866 20.1274 20.4304 20.1271 20.2707V4.79167C20.1271 4.02917 19.8242 3.2979 19.285 2.75873C18.7458 2.21957 18.0146 1.91667 17.2521 1.91667H5.75016Z" fill="#135BBD"/>
</svg>
