<svg width="27" height="24" viewBox="0 0 27 24" fill="none" xmlns="http://www.w3.org/2000/svg">
<path d="M11.3761 18C13.3063 17.9996 15.1809 17.4054 16.7014 16.312L21.4819 20.708L23.0196 19.294L18.2391 14.898C19.4288 13.4997 20.0753 11.7754 20.0758 10C20.0758 5.589 16.1729 2 11.3761 2C6.5793 2 2.67639 5.589 2.67639 10C2.67639 14.411 6.5793 18 11.3761 18ZM11.3761 4C14.9745 4 17.9009 6.691 17.9009 10C17.9009 13.309 14.9745 16 11.3761 16C7.77768 16 4.85132 13.309 4.85132 10C4.85132 6.691 7.77768 4 11.3761 4Z" fill="#2F80ED"/>
</svg>
