<svg width="23" height="24" viewBox="0 0 23 24" fill="none" xmlns="http://www.w3.org/2000/svg">
<path d="M1.10682 18C1.93398 19.4356 3.76834 19.9288 5.20393 19.1017C5.20491 19.1011 5.20585 19.1005 5.20684 19.1L5.65182 18.843C6.49182 19.5616 7.45735 20.119 8.4998 20.487V21C8.4998 22.6568 9.84296 24 11.4998 24C13.1566 24 14.4998 22.6568 14.4998 21V20.487C15.5424 20.1184 16.508 19.5604 17.3478 18.841L17.7948 19.099C19.2307 19.9274 21.0664 19.4349 21.8948 17.999C22.7232 16.563 22.2308 14.7274 20.7948 13.899L20.3508 13.643C20.5507 12.5554 20.5507 11.4405 20.3508 10.353L20.7948 10.097C22.2307 9.26855 22.7232 7.43292 21.8948 5.99695C21.0664 4.56103 19.2308 4.06852 17.7948 4.89694L17.3498 5.15395C16.509 4.43616 15.5428 3.87984 14.4998 3.513V3C14.4998 1.34316 13.1566 0 11.4998 0C9.84296 0 8.4998 1.34316 8.4998 3V3.513C7.45721 3.88158 6.49163 4.43958 5.65182 5.15902L5.20482 4.90003C3.76885 4.07156 1.93323 4.56408 1.1048 6C0.276383 7.43592 0.768852 9.27159 2.20482 10.1L2.64882 10.356C2.44895 11.4435 2.44895 12.5584 2.64882 13.646L2.20482 13.902C0.772836 14.7326 0.281961 16.5647 1.10682 18ZM11.4998 8.00002C13.7089 8.00002 15.4998 9.79088 15.4998 12C15.4998 14.2091 13.7089 16 11.4998 16C9.29068 16 7.49982 14.2091 7.49982 12C7.49982 9.79088 9.29068 8.00002 11.4998 8.00002Z" fill="#709EDE"/>
</svg>
