<svg width="13" height="27" viewBox="0 0 13 27" fill="none" xmlns="http://www.w3.org/2000/svg">
<path d="M11.2321 6.61887V20.3436C11.2321 22.9811 9.25598 25.1174 6.81614 25.1174C4.3763 25.1174 2.40014 22.9811 2.40014 20.3436V5.42542C2.40014 4.63411 2.69093 3.87521 3.20853 3.31568C3.72613 2.75614 4.42814 2.44179 5.16014 2.44179C5.89214 2.44179 6.59416 2.75614 7.11176 3.31568C7.62936 3.87521 7.92014 4.63411 7.92014 5.42542V17.9567C7.92014 18.6131 7.42334 19.1501 6.81614 19.1501C6.20894 19.1501 5.71214 18.6131 5.71214 17.9567V6.61887H4.05614V17.9567C4.05614 18.748 4.34693 19.5069 4.86453 20.0664C5.38213 20.626 6.08414 20.9403 6.81614 20.9403C7.54814 20.9403 8.25016 20.626 8.76776 20.0664C9.28536 19.5069 9.57614 18.748 9.57614 17.9567V5.42542C9.57614 2.78789 7.59998 0.651611 5.16014 0.651611C2.7203 0.651611 0.744141 2.78789 0.744141 5.42542V20.3436C0.744141 23.9717 3.45998 26.9076 6.81614 26.9076C10.1723 26.9076 12.8881 23.9717 12.8881 20.3436V6.61887H11.2321Z" fill="#1B1A57"/>
</svg>
