<svg width="23" height="23" viewBox="0 0 23 23" fill="none" xmlns="http://www.w3.org/2000/svg">
<path d="M10.9978 14.375C10.7437 14.375 10.4999 14.476 10.3202 14.6557C10.1405 14.8354 10.0395 15.0792 10.0395 15.3333V18.2083C10.0395 18.9708 9.7366 19.7021 9.19743 20.2413C8.65826 20.7804 7.927 21.0833 7.1645 21.0833H4.79167C4.02917 21.0833 3.2979 20.7804 2.75873 20.2413C2.21957 19.7021 1.91667 18.9708 1.91667 18.2083V4.79167C1.91667 4.02917 2.21957 3.2979 2.75873 2.75873C3.2979 2.21957 4.02917 1.91667 4.79167 1.91667H7.1645C7.927 1.91667 8.65826 2.21957 9.19743 2.75873C9.7366 3.2979 10.0395 4.02917 10.0395 4.79167V7.66667C10.0395 7.92083 10.1405 8.16459 10.3202 8.34431C10.4999 8.52403 10.7437 8.625 10.9978 8.625C11.252 8.625 11.4958 8.52403 11.6755 8.34431C11.8552 8.16459 11.9562 7.92083 11.9562 7.66667V4.79167C11.9546 3.5213 11.4493 2.30341 10.551 1.40513C9.65276 0.506845 8.43486 0.0015217 7.1645 0H4.79167C3.5213 0.0015217 2.30341 0.506845 1.40513 1.40513C0.506845 2.30341 0.0015217 3.5213 0 4.79167L0 18.2083C0.0015217 19.4787 0.506845 20.6966 1.40513 21.5949C2.30341 22.4932 3.5213 22.9985 4.79167 23H7.1645C8.43486 22.9985 9.65276 22.4932 10.551 21.5949C11.4493 20.6966 11.9546 19.4787 11.9562 18.2083V15.3333C11.9562 15.0792 11.8552 14.8354 11.6755 14.6557C11.4958 14.476 11.252 14.375 10.9978 14.375Z" fill="#135BBD"/>
<path d="M21.9144 9.46678L17.5195 5.07186C17.4311 4.98033 17.3253 4.90733 17.2084 4.8571C17.0915 4.80688 16.9658 4.78044 16.8385 4.77933C16.7113 4.77823 16.5851 4.80247 16.4673 4.85066C16.3495 4.89885 16.2425 4.97001 16.1525 5.05999C16.0626 5.14997 15.9914 5.25697 15.9432 5.37474C15.895 5.49252 15.8708 5.61871 15.8719 5.74596C15.873 5.8732 15.8994 5.99896 15.9496 6.11588C15.9999 6.2328 16.0729 6.33854 16.1644 6.42695L20.2498 10.5123L5.7502 10.5411C5.49604 10.5411 5.25228 10.642 5.07256 10.8218C4.89284 11.0015 4.79187 11.2452 4.79187 11.4994C4.79187 11.7536 4.89284 11.9973 5.07256 12.177C5.25228 12.3568 5.49604 12.4577 5.7502 12.4577L20.3054 12.429L16.1625 16.5719C16.071 16.6603 15.998 16.766 15.9477 16.8829C15.8975 16.9999 15.8711 17.1256 15.87 17.2529C15.8689 17.3801 15.8931 17.5063 15.9413 17.6241C15.9895 17.7418 16.0606 17.8488 16.1506 17.9388C16.2406 18.0288 16.3476 18.1 16.4654 18.1482C16.5831 18.1963 16.7093 18.2206 16.8366 18.2195C16.9638 18.2184 17.0896 18.1919 17.2065 18.1417C17.3234 18.0915 17.4292 18.0185 17.5176 17.9269L21.9125 13.532C22.4517 12.9931 22.7549 12.2621 22.7552 11.4998C22.7556 10.7375 22.4531 10.0062 21.9144 9.46678Z" fill="#135BBD"/>
</svg>
