<svg width="40" height="40" viewBox="0 0 40 40" fill="none" xmlns="http://www.w3.org/2000/svg">
<g clip-path="url(#clip0_1635_7250)">
<path d="M39.726 14.6572C39.3851 13.572 38.704 12.6253 37.7834 11.9572C36.8629 11.2891 35.7517 10.9349 34.6143 10.9472H27.3327L25.121 4.05383C24.7732 2.96876 24.0898 2.02218 23.1693 1.3506C22.2488 0.679021 21.1388 0.317139 19.9993 0.317139C18.8599 0.317139 17.7499 0.679021 16.8294 1.3506C15.9089 2.02218 15.2255 2.96876 14.8777 4.05383L12.666 10.9472H5.38434C4.25058 10.9488 3.14633 11.3086 2.22931 11.9753C1.31229 12.642 0.629413 13.5815 0.278214 14.6595C-0.072985 15.7375 -0.0745394 16.8989 0.273773 17.9778C0.622085 19.0567 1.30245 19.998 2.21768 20.6672L8.14434 25.0005L5.89101 31.9788C5.52686 33.0611 5.52225 34.2322 5.87786 35.3173C6.23347 36.4025 6.93026 37.3436 7.86434 38.0005C8.78243 38.6785 9.895 39.0417 11.0363 39.036C12.1775 39.0302 13.2864 38.6559 14.1977 37.9688L19.9993 33.6988L25.8027 37.9638C26.7191 38.6379 27.8257 39.0041 28.9633 39.0096C30.1009 39.0151 31.211 38.6598 32.134 37.9947C33.0569 37.3296 33.7452 36.3889 34.0998 35.308C34.4545 34.227 34.4572 33.0614 34.1077 31.9788L31.8543 25.0005L37.7877 20.6672C38.7134 20.0064 39.4017 19.0652 39.7508 17.9827C40.0999 16.9003 40.0912 15.7343 39.726 14.6572ZM35.821 17.9755L28.9143 23.0238C28.6307 23.2308 28.4196 23.522 28.3112 23.8561C28.2029 24.1901 28.2028 24.5498 28.311 24.8838L30.936 33.0005C31.0688 33.4122 31.0677 33.8554 30.9328 34.2664C30.7978 34.6773 30.5361 35.035 30.1851 35.2878C29.8341 35.5406 29.4119 35.6756 28.9794 35.6734C28.5468 35.6712 28.1261 35.5319 27.7777 35.2755L20.986 30.2755C20.7 30.0654 20.3543 29.9521 19.9993 29.9521C19.6444 29.9521 19.2987 30.0654 19.0127 30.2755L12.221 35.2755C11.8728 35.5354 11.4509 35.6776 11.0165 35.6815C10.582 35.6854 10.1576 35.5509 9.80473 35.2974C9.45187 35.0439 9.18893 34.6846 9.054 34.2716C8.91908 33.8586 8.9192 33.4134 9.05434 33.0005L11.6877 24.8838C11.7959 24.5498 11.7958 24.1901 11.6874 23.8561C11.5791 23.522 11.368 23.2308 11.0843 23.0238L4.17768 17.9755C3.82985 17.7208 3.5714 17.3627 3.43925 16.9524C3.30709 16.5421 3.30799 16.1005 3.44182 15.6907C3.57564 15.2809 3.83555 14.9238 4.18441 14.6706C4.53328 14.4173 4.95325 14.2808 5.38434 14.2805H13.8843C14.2372 14.2805 14.581 14.1685 14.8661 13.9606C15.1512 13.7528 15.363 13.4598 15.471 13.1238L18.0543 5.07216C18.1869 4.66014 18.4469 4.30081 18.7967 4.04591C19.1465 3.79101 19.5682 3.65367 20.001 3.65367C20.4338 3.65367 20.8555 3.79101 21.2053 4.04591C21.5552 4.30081 21.8151 4.66014 21.9477 5.07216L24.531 13.1238C24.639 13.4598 24.8508 13.7528 25.1359 13.9606C25.4211 14.1685 25.7648 14.2805 26.1177 14.2805H34.6177C35.0488 14.2808 35.4687 14.4173 35.8176 14.6706C36.1665 14.9238 36.4264 15.2809 36.5602 15.6907C36.694 16.1005 36.6949 16.5421 36.5628 16.9524C36.4306 17.3627 36.1722 17.7208 35.8243 17.9755H35.821Z" fill="#135BBD"/>
</g>
<defs>
<clipPath id="clip0_1635_7250">
<rect width="40" height="40" fill="white"/>
</clipPath>
</defs>
</svg>
