<svg width="21" height="21" viewBox="0 0 21 21" fill="none" xmlns="http://www.w3.org/2000/svg">
<g clip-path="url(#clip0_828_12414)">
<path d="M19.9264 6.75584C19.5161 6.283 19.009 5.90383 18.4394 5.64402C17.8698 5.38422 17.251 5.24983 16.625 5.24996H13.1346L13.4286 3.46409C13.5327 2.83519 13.4071 2.18986 13.075 1.64579C12.7429 1.10171 12.2262 0.695163 11.6193 0.500282C11.0124 0.305401 10.3556 0.335177 9.76883 0.58418C9.18203 0.833182 8.7043 1.28482 8.42275 1.85671L7 4.73984V18.375H16.0125C17.0655 18.3707 18.082 17.9885 18.8771 17.298C19.6721 16.6075 20.1929 15.6545 20.3446 14.6125L20.9615 10.2375C21.0487 9.61685 21.0014 8.98473 20.8228 8.384C20.6442 7.78328 20.3385 7.228 19.9264 6.75584Z" fill="#FCFDFF"/>
<path d="M0 9.625V14C0.00138938 15.1599 0.462772 16.2719 1.28294 17.0921C2.10311 17.9122 3.2151 18.3736 4.375 18.375H5.25V5.25H4.375C3.2151 5.25139 2.10311 5.71277 1.28294 6.53294C0.462772 7.35311 0.00138938 8.4651 0 9.625H0Z" fill="#FCFDFF"/>
</g>
<defs>
<clipPath id="clip0_828_12414">
<rect width="21" height="21" fill="white"/>
</clipPath>
</defs>
</svg>
