<svg width="7" height="30" viewBox="0 0 7 30" fill="none" xmlns="http://www.w3.org/2000/svg">
<path d="M3.5 22.5C4.42826 22.5 5.3185 22.8951 5.97487 23.5984C6.63125 24.3016 7 25.2554 7 26.25C7 27.2446 6.63125 28.1984 5.97487 28.9016C5.3185 29.6049 4.42826 30 3.5 30C2.57174 30 1.6815 29.6049 1.02513 28.9016C0.36875 28.1984 0 27.2446 0 26.25C0 25.2554 0.36875 24.3016 1.02513 23.5984C1.6815 22.8951 2.57174 22.5 3.5 22.5ZM3.5 11.25C4.42826 11.25 5.3185 11.6451 5.97487 12.3484C6.63125 13.0516 7 14.0054 7 15C7 15.9946 6.63125 16.9484 5.97487 17.6516C5.3185 18.3549 4.42826 18.75 3.5 18.75C2.57174 18.75 1.6815 18.3549 1.02513 17.6516C0.36875 16.9484 0 15.9946 0 15C0 14.0054 0.36875 13.0516 1.02513 12.3484C1.6815 11.6451 2.57174 11.25 3.5 11.25ZM3.5 0C4.42826 0 5.3185 0.395088 5.97487 1.09835C6.63125 1.80161 7 2.75544 7 3.75C7 4.74456 6.63125 5.69839 5.97487 6.40165C5.3185 7.10491 4.42826 7.5 3.5 7.5C2.57174 7.5 1.6815 7.10491 1.02513 6.40165C0.36875 5.69839 0 4.74456 0 3.75C0 2.75544 0.36875 1.80161 1.02513 1.09835C1.6815 0.395088 2.57174 0 3.5 0Z" fill="white"/>
</svg>
