<svg width="32" height="32" viewBox="0 0 32 32" fill="none" xmlns="http://www.w3.org/2000/svg">
<g clip-path="url(#clip0_194:1657)">
<path d="M29.9803 14.6339L16.0003 23.0232L2.02033 14.6339C1.71709 14.4519 1.35401 14.3979 1.01094 14.4837C0.667875 14.5694 0.37293 14.788 0.190992 15.0912C0.00905307 15.3944 -0.0449757 15.7575 0.0407909 16.1006C0.126558 16.4436 0.345094 16.7386 0.648325 16.9205L15.315 25.7205C15.5224 25.8451 15.7597 25.9109 16.0017 25.9109C16.2436 25.9109 16.481 25.8451 16.6883 25.7205L31.355 16.9205C31.6582 16.7386 31.8768 16.4436 31.9625 16.1006C32.0483 15.7575 31.9943 15.3944 31.8123 15.0912C31.6304 14.788 31.3354 14.5694 30.9924 14.4837C30.6493 14.3979 30.2862 14.4519 29.983 14.6339H29.9803Z" fill="#FCFDFF"/>
<path d="M29.9803 20.7237L16.0003 29.1117L2.02032 20.7237C1.87018 20.6336 1.70376 20.574 1.53057 20.5482C1.35738 20.5224 1.18081 20.531 1.01094 20.5735C0.841068 20.616 0.681227 20.6915 0.54054 20.7957C0.399852 20.9 0.281074 21.0309 0.190988 21.181C0.100901 21.3312 0.0412693 21.4976 0.0154978 21.6708C-0.0102736 21.844 -0.0016804 22.0206 0.0407869 22.1904C0.126554 22.5335 0.34509 22.8284 0.648321 23.0104L15.315 31.8104C15.5224 31.935 15.7597 32.0008 16.0017 32.0008C16.2436 32.0008 16.4809 31.935 16.6883 31.8104L31.355 23.0104C31.6582 22.8284 31.8768 22.5335 31.9625 22.1904C32.0483 21.8474 31.9943 21.4843 31.8123 21.181C31.6304 20.8778 31.3354 20.6593 30.9924 20.5735C30.6493 20.4877 30.2862 20.5418 29.983 20.7237H29.9803Z" fill="#FCFDFF"/>
<path d="M15.9998 19.698C15.2806 19.6976 14.575 19.5017 13.9585 19.1313L0.646489 11.1433C0.449352 11.0248 0.286237 10.8572 0.172997 10.657C0.0597565 10.4568 0.000244141 10.2307 0.000244141 10.0006C0.000244141 9.77061 0.0597565 9.54449 0.172997 9.34427C0.286237 9.14404 0.449352 8.97652 0.646489 8.85798L13.9585 0.869977C14.575 0.499616 15.2806 0.303955 15.9998 0.303955C16.719 0.303955 17.4247 0.499616 18.0412 0.869977L31.3532 8.85798C31.5503 8.97652 31.7134 9.14404 31.8266 9.34427C31.9399 9.54449 31.9994 9.77061 31.9994 10.0006C31.9994 10.2307 31.9399 10.4568 31.8266 10.657C31.7134 10.8572 31.5503 11.0248 31.3532 11.1433L18.0412 19.1313C17.4246 19.5017 16.719 19.6976 15.9998 19.698ZM3.92516 10.0006L15.3332 16.8446C15.5346 16.9652 15.765 17.0288 15.9998 17.0288C16.2346 17.0288 16.465 16.9652 16.6665 16.8446L28.0745 10.0006L16.6665 3.15664C16.465 3.03612 16.2346 2.97247 15.9998 2.97247C15.765 2.97247 15.5346 3.03612 15.3332 3.15664L3.92516 10.0006Z" fill="#FCFDFF"/>
</g>
<defs>
<clipPath id="clip0_194:1657">
<rect width="32" height="32" fill="white"/>
</clipPath>
</defs>
</svg>
