<svg width="24" height="25" viewBox="0 0 24 25" fill="none" xmlns="http://www.w3.org/2000/svg">
<g clip-path="url(#clip0_1033_8043)">
<path d="M23 11.499H21V9.49901C21 8.94673 20.5523 8.49902 20 8.49902C19.4477 8.49902 19 8.94673 19 9.49901V11.499H17C16.4477 11.499 16 11.9467 16 12.499C16 13.0513 16.4477 13.499 17 13.499H19V15.499C19 16.0513 19.4477 16.499 20 16.499C20.5523 16.499 21 16.0513 21 15.499V13.499H23C23.5523 13.499 24 13.0513 24 12.499C24 11.9467 23.5523 11.499 23 11.499Z" fill="#FCFDFF"/>
<path d="M9 12.5C12.3137 12.5 15 9.81371 15 6.5C15 3.18629 12.3137 0.5 9 0.5C5.68629 0.5 3 3.18629 3 6.5C3 9.81371 5.68629 12.5 9 12.5Z" fill="#FCFDFF"/>
<path d="M9 14.499C4.03172 14.5046 0.00553125 18.5307 0 23.499C0 24.0513 0.447703 24.499 0.999984 24.499H17C17.5522 24.499 18 24.0513 18 23.499C17.9945 18.5307 13.9683 14.5045 9 14.499Z" fill="#FCFDFF"/>
</g>
<defs>
<clipPath id="clip0_1033_8043">
<rect width="24" height="24" fill="white" transform="translate(0 0.5)"/>
</clipPath>
</defs>
</svg>
