<svg width="23" height="24" viewBox="0 0 23 24" fill="none" xmlns="http://www.w3.org/2000/svg">
<g clip-path="url(#clip0_427:9241)">
<path d="M10.5482 2.97068L10.5414 17.7654C10.5414 18.0196 10.6424 18.2634 10.8221 18.4431C11.0019 18.6228 11.2456 18.7238 11.4998 18.7238C11.7539 18.7238 11.9977 18.6228 12.1774 18.4431C12.3571 18.2634 12.4581 18.0196 12.4581 17.7654L12.4648 2.98698L15.2555 5.7786C15.4352 5.95826 15.6789 6.05919 15.933 6.05919C16.1871 6.05919 16.4309 5.95826 16.6106 5.7786C16.7902 5.59889 16.8912 5.35517 16.8912 5.10106C16.8912 4.84694 16.7902 4.60323 16.6106 4.42352L13.5334 1.34248C13.2664 1.07531 12.9493 0.863376 12.6004 0.718779C12.2515 0.574181 11.8775 0.499756 11.4998 0.499756C11.1221 0.499756 10.7481 0.574181 10.3991 0.718779C10.0502 0.863376 9.73319 1.07531 9.46619 1.34248L6.38899 4.42064C6.20933 4.60036 6.1084 4.84407 6.1084 5.09818C6.1084 5.3523 6.20933 5.59601 6.38899 5.77573C6.5687 5.95539 6.81241 6.05631 7.06653 6.05631C7.32064 6.05631 7.56436 5.95539 7.74407 5.77573L10.5482 2.97068Z" fill="#135BBD"/>
<path d="M21.0833 16.7911V20.6244C21.0833 20.8786 20.9824 21.1223 20.8026 21.3021C20.6229 21.4818 20.3792 21.5828 20.125 21.5828H2.875C2.62083 21.5828 2.37708 21.4818 2.19736 21.3021C2.01763 21.1223 1.91667 20.8786 1.91667 20.6244V16.7911C1.91667 16.5369 1.8157 16.2932 1.63598 16.1135C1.45625 15.9337 1.2125 15.8328 0.958333 15.8328C0.704167 15.8328 0.460412 15.9337 0.280689 16.1135C0.100967 16.2932 0 16.5369 0 16.7911L0 20.6244C0 21.3869 0.302901 22.1182 0.842068 22.6574C1.38124 23.1965 2.1125 23.4994 2.875 23.4994H20.125C20.8875 23.4994 21.6188 23.1965 22.1579 22.6574C22.6971 22.1182 23 21.3869 23 20.6244V16.7911C23 16.5369 22.899 16.2932 22.7193 16.1135C22.5396 15.9337 22.2958 15.8328 22.0417 15.8328C21.7875 15.8328 21.5437 15.9337 21.364 16.1135C21.1843 16.2932 21.0833 16.5369 21.0833 16.7911Z" fill="#135BBD"/>
</g>
<defs>
<clipPath id="clip0_427:9241">
<rect width="23" height="23" fill="white" transform="translate(0 0.5)"/>
</clipPath>
</defs>
</svg>
