<svg width="46" height="44" viewBox="0 0 46 44" fill="none" xmlns="http://www.w3.org/2000/svg">
<ellipse cx="22.6961" cy="22" rx="22.6857" ry="22" fill="#135BBD"/>
<path d="M6.04218 27.4668H14.177V29H3.82539V27.5938L11.6184 16.3242H3.95234V14.7812H13.8645V16.1582L6.04218 27.4668ZM22.9488 29C22.8447 28.7917 22.76 28.4206 22.6949 27.8867C21.8551 28.7591 20.8525 29.1953 19.6871 29.1953C18.6454 29.1953 17.7893 28.9023 17.1187 28.3164C16.4547 27.724 16.1227 26.9753 16.1227 26.0703C16.1227 24.9701 16.5393 24.1172 17.3727 23.5117C18.2125 22.8997 19.3909 22.5938 20.9078 22.5938H22.6656V21.7637C22.6656 21.1322 22.4768 20.6309 22.0992 20.2598C21.7216 19.8822 21.165 19.6934 20.4293 19.6934C19.7848 19.6934 19.2444 19.8561 18.8082 20.1816C18.372 20.5072 18.1539 20.901 18.1539 21.3633H16.3375C16.3375 20.8359 16.523 20.3281 16.8941 19.8398C17.2717 19.3451 17.7796 18.9544 18.4176 18.668C19.0621 18.3815 19.7685 18.2383 20.5367 18.2383C21.7542 18.2383 22.7079 18.5443 23.398 19.1562C24.0881 19.7617 24.4462 20.5983 24.4723 21.666V26.5293C24.4723 27.4993 24.596 28.2708 24.8434 28.8438V29H22.9488ZM19.9508 27.623C20.5172 27.623 21.0543 27.4766 21.5621 27.1836C22.0699 26.8906 22.4378 26.5098 22.6656 26.041V23.873H21.2496C19.0361 23.873 17.9293 24.5208 17.9293 25.8164C17.9293 26.3828 18.1181 26.8255 18.4957 27.1445C18.8733 27.4635 19.3583 27.623 19.9508 27.623ZM29.3672 29H27.5605V14H29.3672V29ZM31.8891 23.6191C31.8891 22.584 32.0909 21.653 32.4945 20.8262C32.9047 19.9993 33.4711 19.3613 34.1937 18.9121C34.9229 18.4629 35.753 18.2383 36.684 18.2383C38.1228 18.2383 39.2849 18.7363 40.1703 19.7324C41.0622 20.7285 41.5082 22.0534 41.5082 23.707V23.834C41.5082 24.8626 41.3096 25.7871 40.9125 26.6074C40.5219 27.4212 39.9587 28.056 39.223 28.5117C38.4939 28.9674 37.654 29.1953 36.7035 29.1953C35.2712 29.1953 34.1091 28.6973 33.2172 27.7012C32.3318 26.7051 31.8891 25.3867 31.8891 23.7461V23.6191ZM33.7055 23.834C33.7055 25.0059 33.9756 25.9466 34.516 26.6562C35.0629 27.3659 35.7921 27.7207 36.7035 27.7207C37.6215 27.7207 38.3506 27.3626 38.891 26.6465C39.4314 25.9238 39.7016 24.9147 39.7016 23.6191C39.7016 22.4603 39.4249 21.5228 38.8715 20.8066C38.3246 20.084 37.5954 19.7227 36.684 19.7227C35.7921 19.7227 35.0727 20.0775 34.5258 20.7871C33.9789 21.4967 33.7055 22.5124 33.7055 23.834Z" fill="white"/>
</svg>
