<svg width="24" height="24" viewBox="0 0 24 24" fill="none" xmlns="http://www.w3.org/2000/svg">
<g clip-path="url(#clip0_346:12818)">
<path d="M12.0001 4C13.1046 4 14.0001 3.10457 14.0001 2C14.0001 0.89543 13.1046 0 12.0001 0C10.8955 0 10.0001 0.89543 10.0001 2C10.0001 3.10457 10.8955 4 12.0001 4Z" fill="#FFA104"/>
<path d="M12.0001 14.0002C13.1046 14.0002 14.0001 13.1048 14.0001 12.0002C14.0001 10.8957 13.1046 10.0002 12.0001 10.0002C10.8955 10.0002 10.0001 10.8957 10.0001 12.0002C10.0001 13.1048 10.8955 14.0002 12.0001 14.0002Z" fill="#FFA104"/>
<path d="M12.0001 23.9998C13.1046 23.9998 14.0001 23.1043 14.0001 21.9998C14.0001 20.8952 13.1046 19.9998 12.0001 19.9998C10.8955 19.9998 10.0001 20.8952 10.0001 21.9998C10.0001 23.1043 10.8955 23.9998 12.0001 23.9998Z" fill="#FFA104"/>
</g>
<defs>
<clipPath id="clip0_346:12818">
<rect width="24" height="24" fill="white"/>
</clipPath>
</defs>
</svg>
